<svg xmlns="http://www.w3.org/2000/svg" width="1024" height="1024"><path fill="#0098E9" d="M511.245 5.917c80.282-1.865 161.33 15.88 232.631 52.984 2.457 1.271 4.925 2.516 7.394 3.763C778.518 76.526 803.997 93.074 828 112q1.69 1.294 3.387 2.582c.573.436 1.145.872 1.736 1.32q2.354 1.79 4.709 3.578c13.681 10.682 26.022 23.288 38.293 35.52l2.366 2.353c4.709 4.72 9.162 9.593 13.509 14.647q1.872 2.065 3.75 4.125c4.884 5.486 9.35 11.283 13.849 17.084a365 365 0 0 0 3.987 4.994C936.466 226.537 955.35 258.162 971 291l1.146 2.401C998.11 348.193 1013.293 406.625 1018 467l.281 3.33c4.62 59.956-2.556 122.248-19.476 179.918q-.816 2.79-1.606 5.59C983.739 703.448 963.146 750.589 936 792l-1.938 2.973a658 658 0 0 1-4.875 7.273c-1.393 2.058-2.772 4.125-4.152 6.191-6.471 9.634-13.244 18.841-20.612 27.804a222 222 0 0 0-4.091 5.236c-6.668 8.748-13.977 16.716-21.572 24.666-3.364 3.55-6.63 7.187-9.905 10.818a70 70 0 0 1-7.043 6.726 110 110 0 0 0-7.25 6.75c-3.02 3.069-6.179 5.914-9.437 8.727a690 690 0 0 0-7 6.148l-2.242 1.989A105 105 0 0 0 832 911q-2.076 1.401-4.188 2.75c-2.83 1.863-5.478 3.736-8 6-4.075 3.631-8.549 6.696-13.014 9.823-2.424 1.703-4.699 3.328-6.798 5.427a749 749 0 0 1-4.771 2.693c-5.898 3.458-11.528 7.385-17.22 11.17l-3.029 1.996-2.753 1.828C770 954 770 954 768 954l-1 3c-1.81.563-1.81.563-4 1a79 79 0 0 0-4.04 1.996l-2.257 1.193-2.328 1.248-2.352 1.237c-4.305 2.25-4.305 2.25-8.023 5.326h-3l-1 3-3-1-1 2h-3l-1 2a98 98 0 0 1-5.938 2.625l-3.277 1.352C720 980 720 980 718 980l-1 2c-1.672.816-1.672.816-3.75 1.562l-2.176.782C709 985 709 985 706.062 985.562c-.68.145-1.36.29-2.062.438l-1 2-2-1-1 2c-3 1-3 1-6 1l-1 2c-2.406.965-2.406.965-5.5 1.937l-3.277 1.043L681 996q-3.584 1.233-7.16 2.484C672 999 672 999 669 999v2c-5.321 1.083-10.635 2.153-16 3l-1 3-1-2q-3.188.966-6.375 1.937l-3.586 1.09c-2.918.849-2.918.849-5.039 1.973l-3-1-1 3-1-2-2.895.805c-6.91 1.896-13.756 3.637-20.835 4.8-2.207.348-2.207.348-4.079.887-3.99.925-8.101 1.236-12.171 1.67-4.235.49-8.028 1.343-12.02 2.838v-2l-2.557.963c-3.615 1.089-6.764 1.427-10.529 1.635l-2.002.118q-3.142.183-6.287.346-4.137.232-8.273.473l-3.942.228c-2.513.175-4.941.408-7.426.788-5.716.8-11.522.597-17.283.58-2.064-.006-4.129 0-6.193.006-6.253.004-12.429-.1-18.643-.825-3.928-.428-7.863-.726-11.803-1.03l-2.46-.193-7.602-.589c-9.677-.748-19.345-1.504-29-2.5h-2v-2l-2.563.625c-4.018.438-6.62-.376-10.437-1.625q-2.494-.53-5-1l-2.7-.509-2.913-.542c-31.405-5.894-31.405-5.894-41.387-9.949-2.99-1.033-5.996-2.01-9-3q-2.89-.967-5.777-1.938l-6.16-2.062-3.092-1.04c-5.67-1.895-11.339-3.683-17.11-5.25C335 990 335 990 334 988c-2.282-.653-2.282-.653-4.938-1.063-4.89-.85-4.89-.85-7.062-1.937v-2l-3.758-1.18c-5.865-1.955-11.47-4.44-17.117-6.945q-3.058-1.35-6.117-2.695l-2.699-1.196c-2.397-1.058-2.397-1.058-5.309-1.984v-2l-6-1v-2l-2.688-.875A140 140 0 0 1 270 960v-2l-2.125-.813c-3.042-1.256-5.944-2.69-8.875-4.187l-1.867-.871c-3.495-1.85-6.594-4.257-9.793-6.57-2.334-1.703-2.334-1.703-5.34-2.559a292 292 0 0 1-5-4 496 496 0 0 0-6.563-4.563c-6.065-4.152-6.065-4.152-8.699-6.171-1.903-1.386-3.437-1.855-5.738-2.266l1-2h-3l-5-5-2.5-.938c-2.647-1.125-3.386-1.927-5.125-4.125-2.11-3.148-2.11-3.148-5.375-3.937-1.688-1.438-1.688-1.438-3-3v-2l-2.188-.688c-3.428-1.6-5.19-3.57-7.812-6.312a450 450 0 0 0-4.5-4c-2.532-2.23-5.018-4.46-7.375-6.875-2.133-2.272-2.133-2.272-5.125-4.125v-2h-2v-2l-1.688-.688c-2.96-1.68-4.931-3.879-7.312-6.312l-2.43-2.395c-4.548-4.497-8.955-9.038-13.097-13.914-1.456-1.727-1.456-1.727-3.164-3.289C135 851 135 851 135 849l-1.852-.273c-2.731-.924-3.163-1.855-4.523-4.352-2.801-4.816-6.152-8.96-10.137-12.852-1.567-1.604-2.855-3.273-4.176-5.086-2.391-3.244-4.884-6.38-7.437-9.5-3.083-3.82-5.606-7.589-7.875-11.937h-2l-.875-2.875c-.893-3.177-.893-3.177-3.125-5.125l-2 1 .273-2.074c-.374-4.009-2.347-6.573-4.648-9.739l-1.25-1.81C84.31 782.874 83.161 781.431 82 780h-2l-.25-2.688c-.865-3.82-2.323-5.284-4.75-8.312a140 140 0 0 1-3.063-6.125c-1.683-3.582-3.125-6.133-5.937-8.875-.852-1.813-.852-1.813-1.625-4-1.978-5.192-4.293-10.178-6.688-15.188l-1.182-2.477-2.363-4.943c-1.71-3.581-3.398-7.172-5.08-10.767l-1.652-3.523C44 705.602 44 705.602 44 702l-3-1v-4c-.622-2.098-.622-2.098-1.531-4.223l-.957-2.38-1.012-2.46q-.99-2.42-1.969-4.847l-.888-2.16C34 679 34 679 34 676l-2-1c-.746-2.117-.746-2.117-1.438-4.875l-.773-3.008L29 664a1305 1305 0 0 0-1.563-5.75l-.753-2.758c-1.515-5.52-3.144-10.964-5-16.379-1.833-5.666-1.833-5.666-.684-9.113l-2-1c-.272-1.63-.53-3.262-.719-4.902-.303-2.26-.77-4.439-1.281-6.66-2.217-9.786-2.217-9.786-1-13.438l-2-1a99 99 0 0 1-1-7.563l-.492-4.656-.25-2.406a287 287 0 0 0-.828-6.781l-.282-2.12-.78-5.79c-.394-3.941-.43-7.727-.368-11.684l-2-1 .035-3.29q.015-2.167.027-4.335l.026-2.16.01-2.13.016-1.935c-.066-2.224-.066-2.224-.614-4.658-.737-5.15-.622-10.257-.598-15.453l.005-3.472c.005-3.647.018-7.295.03-10.942q.009-3.717.014-7.434Q6.968 496.096 7 487h2c-.095-.955-.19-1.91-.29-2.895-.11-1.292-.22-2.585-.335-3.918l-.352-3.832c-.175-4.246.56-8.142 1.39-12.296 1.11-5.776 1.848-11.61 2.65-17.434l.525-3.71c.967-7 1.7-13.942 2.066-21 .378-3.184 1.271-5.9 2.346-8.915q.56-2.99 1-6c.614-4.213 1.625-7.974 3-12a261 261 0 0 0 1.5-6.313l.781-3.437c.428-1.935.848-3.872 1.25-5.813.888-4.26 2.01-8.201 3.688-12.222.899-2.429.899-2.429 1.668-5.89 1.126-4.624 2.74-9.006 4.425-13.45q.939-2.505 1.875-5.012l.93-2.482c1.673-4.51 3.254-9.054 4.84-13.596.887-2.37 1.893-4.538 3.043-6.785l1.312-3.625c1.548-4.252 3.576-8.186 5.7-12.176 1.193-2.253 1.193-2.253.988-5.199h2c1.129-3.311 2.213-6.59 3-10h2l.687-2.402c1.69-4.634 3.968-8.83 6.313-13.16 3.862-7.05 3.862-7.05 7-14.438h2c1.491-3.622 2.787-7.276 4-11h2l1.39-2.703 1.86-3.547 1.828-3.516c1.746-2.937 3.489-4.887 5.922-7.234v-2l4-4v-2a119 119 0 0 1 3.562-3.438c1.683-1.614 1.683-1.614 2.438-4.562h2l1-4h2l.875-1.75L110 207l1-2.188c1-1.812 1-1.812 3-2.812l1-3 5-5a198 198 0 0 0 3-5 271 271 0 0 1 3-3 421 421 0 0 0 4.5-5.477C132 179 132 179 135 178c1.219-2.504 1.219-2.504 2-5h2l1-3h2v-3c1.39-1.43 1.39-1.43 3.25-2.875 3.037-2.454 5.319-5.063 7.75-8.125h2l1-3q2.494-2.007 5-4l2.5-3c2.327-2.792 4.534-4.916 7.5-7h2v-2h2v-2h2v-2a742 742 0 0 1 6-4 142 142 0 0 0 5-5c3.986-4.185 7.475-7.158 13-9v-2l5-2v-2c5.412-4 5.412-4 8-4v-2c1.984-1.41 1.984-1.41 4.75-3.063a137 137 0 0 0 12.25-8.5c4.542-3.46 9.1-6.285 14.16-8.914 3.16-1.695 6.177-3.557 9.215-5.46 5.563-3.472 11.23-6.595 17.043-9.618 2.645-1.327 2.645-1.327 4.582-3.445l2.52-.816c4.646-1.58 8.82-3.861 13.167-6.122C359.382 22.644 435.832 7.835 511.245 5.917"/><path fill="#F26D5D" d="M511.245 5.917c80.282-1.865 161.33 15.88 232.631 52.984 2.457 1.271 4.925 2.516 7.394 3.763C778.518 76.526 803.997 93.074 828 112q1.69 1.294 3.387 2.582c.573.436 1.145.872 1.736 1.32q2.354 1.79 4.709 3.578c13.681 10.682 26.022 23.288 38.293 35.52l2.366 2.353c4.709 4.72 9.162 9.593 13.509 14.647q1.872 2.065 3.75 4.125c4.884 5.486 9.35 11.283 13.849 17.084a365 365 0 0 0 3.987 4.994C936.466 226.537 955.35 258.162 971 291l1.146 2.401C998.11 348.193 1013.293 406.625 1018 467l.281 3.33c4.62 59.956-2.556 122.248-19.476 179.918q-.816 2.79-1.606 5.59C983.739 703.448 963.146 750.589 936 792l-1.938 2.973a658 658 0 0 1-4.875 7.273c-1.393 2.058-2.772 4.125-4.152 6.191-6.471 9.634-13.244 18.841-20.612 27.804a222 222 0 0 0-4.091 5.236c-6.668 8.748-13.977 16.716-21.572 24.666-3.364 3.55-6.63 7.187-9.905 10.818a70 70 0 0 1-7.043 6.726 110 110 0 0 0-7.25 6.75c-3.02 3.069-6.179 5.914-9.437 8.727a690 690 0 0 0-7 6.148l-2.242 1.989A105 105 0 0 0 832 911q-2.076 1.401-4.188 2.75c-2.83 1.863-5.478 3.736-8 6-4.075 3.631-8.549 6.696-13.014 9.823-2.424 1.703-4.699 3.328-6.798 5.427a749 749 0 0 1-4.771 2.693c-5.898 3.458-11.528 7.385-17.22 11.17l-3.029 1.996-2.753 1.828C770 954 770 954 768 954l-1 3c-1.81.563-1.81.563-4 1a79 79 0 0 0-4.04 1.996l-2.257 1.193-2.328 1.248-2.352 1.237c-4.305 2.25-4.305 2.25-8.023 5.326h-3l-1 3-3-1-1 2h-3l-1 2a98 98 0 0 1-5.938 2.625l-3.277 1.352C720 980 720 980 718 980l-1 2c-1.672.816-1.672.816-3.75 1.562l-2.176.782C709 985 709 985 706.062 985.562c-.68.145-1.36.29-2.062.438l-1 2-2-1-1 2c-3 1-3 1-6 1l-1 2c-2.406.965-2.406.965-5.5 1.937l-3.277 1.043L681 996q-3.584 1.233-7.16 2.484C672 999 672 999 669 999v2c-5.321 1.083-10.635 2.153-16 3l-1 3-1-2q-3.188.966-6.375 1.937l-3.586 1.09c-2.918.849-2.918.849-5.039 1.973l-3-1-1 3-1-2-2.895.805c-6.91 1.896-13.756 3.637-20.835 4.8-2.207.348-2.207.348-4.079.887-3.99.925-8.101 1.236-12.171 1.67-4.235.49-8.028 1.343-12.02 2.838v-2l-2.557.963c-3.615 1.089-6.764 1.427-10.529 1.635l-2.002.118q-3.142.183-6.287.346-4.137.232-8.273.473l-3.942.228c-2.513.175-4.941.408-7.426.788-5.716.8-11.522.597-17.283.58-2.064-.006-4.129 0-6.193.006-6.253.004-12.429-.1-18.643-.825-3.928-.428-7.863-.726-11.803-1.03l-2.46-.193-7.602-.589c-9.677-.748-19.345-1.504-29-2.5h-2v-2l-2.563.625c-4.018.438-6.62-.376-10.437-1.625q-2.494-.53-5-1l-2.7-.509-2.913-.542c-31.405-5.894-31.405-5.894-41.387-9.949-2.99-1.033-5.996-2.01-9-3q-2.89-.967-5.777-1.938l-6.16-2.062-3.092-1.04c-5.67-1.895-11.339-3.683-17.11-5.25C335 990 335 990 334 988c-2.282-.653-2.282-.653-4.938-1.063-4.89-.85-4.89-.85-7.062-1.937v-2l-3.758-1.18c-5.865-1.955-11.47-4.44-17.117-6.945q-3.058-1.35-6.117-2.695l-2.699-1.196c-2.397-1.058-2.397-1.058-5.309-1.984v-2l-6-1v-2l-2.688-.875A140 140 0 0 1 270 960v-2l-2.125-.813c-3.042-1.256-5.944-2.69-8.875-4.187l-1.867-.871c-3.495-1.85-6.594-4.257-9.793-6.57-2.334-1.703-2.334-1.703-5.34-2.559a292 292 0 0 1-5-4 496 496 0 0 0-6.563-4.563c-6.065-4.152-6.065-4.152-8.699-6.171-1.903-1.386-3.437-1.855-5.738-2.266l1-2h-3l-5-5-2.5-.938c-2.647-1.125-3.386-1.927-5.125-4.125-2.11-3.148-2.11-3.148-5.375-3.937-1.688-1.438-1.688-1.438-3-3v-2l-2.188-.688c-3.428-1.6-5.19-3.57-7.812-6.312a450 450 0 0 0-4.5-4c-2.532-2.23-5.018-4.46-7.375-6.875-2.133-2.272-2.133-2.272-5.125-4.125v-2h-2v-2l-1.688-.688c-2.96-1.68-4.931-3.879-7.312-6.312l-2.43-2.395c-4.548-4.497-8.955-9.038-13.097-13.914-1.456-1.727-1.456-1.727-3.164-3.289C135 851 135 851 135 849l-1.852-.273c-2.731-.924-3.163-1.855-4.523-4.352-2.801-4.816-6.152-8.96-10.137-12.852-1.567-1.604-2.855-3.273-4.176-5.086-2.391-3.244-4.884-6.38-7.437-9.5-3.083-3.82-5.606-7.589-7.875-11.937h-2l-.875-2.875c-.893-3.177-.893-3.177-3.125-5.125l-2 1 .273-2.074c-.374-4.009-2.347-6.573-4.648-9.739l-1.25-1.81C84.31 782.874 83.161 781.431 82 780h-2l-.25-2.688c-.865-3.82-2.323-5.284-4.75-8.312a140 140 0 0 1-3.063-6.125c-1.683-3.582-3.125-6.133-5.937-8.875-.852-1.813-.852-1.813-1.625-4-1.978-5.192-4.293-10.178-6.688-15.188l-1.182-2.477-2.363-4.943c-1.71-3.581-3.398-7.172-5.08-10.767l-1.652-3.523C44 705.602 44 705.602 44 702l-3-1v-4c-.622-2.098-.622-2.098-1.531-4.223l-.957-2.38-1.012-2.46q-.99-2.42-1.969-4.847l-.888-2.16C34 679 34 679 34 676l-2-1c-.746-2.117-.746-2.117-1.438-4.875l-.773-3.008L29 664a1305 1305 0 0 0-1.563-5.75l-.753-2.758c-1.515-5.52-3.144-10.964-5-16.379-1.833-5.666-1.833-5.666-.684-9.113l-2-1c-.272-1.63-.53-3.262-.719-4.902-.303-2.26-.77-4.439-1.281-6.66-2.217-9.786-2.217-9.786-1-13.438l-2-1a99 99 0 0 1-1-7.563l-.492-4.656-.25-2.406a287 287 0 0 0-.828-6.781l-.282-2.12-.78-5.79c-.394-3.941-.43-7.727-.368-11.684l-2-1 .035-3.29q.015-2.167.027-4.335l.026-2.16.01-2.13.016-1.935c-.066-2.224-.066-2.224-.614-4.658-.737-5.15-.622-10.257-.598-15.453l.005-3.472c.005-3.647.018-7.295.03-10.942q.009-3.717.014-7.434Q6.968 496.096 7 487h2c-.095-.955-.19-1.91-.29-2.895-.11-1.292-.22-2.585-.335-3.918l-.352-3.832c-.175-4.246.56-8.142 1.39-12.296 1.11-5.776 1.848-11.61 2.65-17.434l.525-3.71c.967-7 1.7-13.942 2.066-21 .378-3.184 1.271-5.9 2.346-8.915q.56-2.99 1-6c.614-4.213 1.625-7.974 3-12a261 261 0 0 0 1.5-6.313l.781-3.437c.428-1.935.848-3.872 1.25-5.813.888-4.26 2.01-8.201 3.688-12.222.899-2.429.899-2.429 1.668-5.89 1.126-4.624 2.74-9.006 4.425-13.45q.939-2.505 1.875-5.012l.93-2.482c1.673-4.51 3.254-9.054 4.84-13.596.887-2.37 1.893-4.538 3.043-6.785l1.312-3.625c1.548-4.252 3.576-8.186 5.7-12.176 1.193-2.253 1.193-2.253.988-5.199h2c1.129-3.311 2.213-6.59 3-10h2l.687-2.402c1.69-4.634 3.968-8.83 6.313-13.16 3.862-7.05 3.862-7.05 7-14.438h2c1.491-3.622 2.787-7.276 4-11h2l1.39-2.703 1.86-3.547 1.828-3.516c1.746-2.937 3.489-4.887 5.922-7.234v-2l4-4v-2a119 119 0 0 1 3.562-3.438c1.683-1.614 1.683-1.614 2.438-4.562h2l1-4h2l.875-1.75L110 207l1-2.188c1-1.812 1-1.812 3-2.812l1-3 5-5a198 198 0 0 0 3-5 271 271 0 0 1 3-3 421 421 0 0 0 4.5-5.477C132 179 132 179 135 178c1.219-2.504 1.219-2.504 2-5h2l1-3h2v-3c1.39-1.43 1.39-1.43 3.25-2.875 3.037-2.454 5.319-5.063 7.75-8.125h2l1-3q2.494-2.007 5-4l2.5-3c2.327-2.792 4.534-4.916 7.5-7h2v-2h2v-2h2v-2a742 742 0 0 1 6-4 142 142 0 0 0 5-5c3.986-4.185 7.475-7.158 13-9v-2l5-2v-2c5.412-4 5.412-4 8-4v-2c1.984-1.41 1.984-1.41 4.75-3.063a137 137 0 0 0 12.25-8.5c4.542-3.46 9.1-6.285 14.16-8.914 3.16-1.695 6.177-3.557 9.215-5.46 5.563-3.472 11.23-6.595 17.043-9.618 2.645-1.327 2.645-1.327 4.582-3.445l2.52-.816c4.646-1.58 8.82-3.861 13.167-6.122C359.382 22.644 435.832 7.835 511.245 5.917M505 60c.5 10.767 1.401 21.337 3 32h7l1 15-5.441-.035-7.122-.028-3.58-.025c-5.726-.016-11.22.037-16.857 1.088V94l5-1c.218-7.35-.423-14.358-1.5-21.625l-.434-3.043Q485.543 64.664 485 61c-2.197 3.296-2.914 5.924-3.91 9.75l-.522 1.983c-.55 2.088-1.09 4.177-1.63 6.267l-1.641 6.267q-.744 2.842-1.48 5.686-.818 3.05-1.817 6.047c-1.89.73-1.89.73-4.25 1.187-.768.16-1.537.318-2.328.481-2.506.343-4.896.354-7.422.332l-5.25-11.438-1.488-3.24A1334 1334 0 0 1 445 66h-1c-.173 10.702.369 21.32 1 32h7l1 12-31 5-1-14h7q-.463-6.563-.938-13.125l-.263-3.75-.264-3.633-.238-3.332c-.29-3.09-.748-6.107-1.297-9.16-4.293.931-8.584 1.871-12.875 2.812l-3.648.792c-6.258 1.377-12.4 2.865-18.493 4.852C388 77 388 77 385 77l-2-5c-4.609.72-8.672 2.313-13 4 .458 3.47.891 6.674 2 10 5.724-.747 11.349-1.829 17-3q.507 2.123 1 4.25l.562 2.39C391 92 391 92 391 96l-2.555.621-3.32.816-3.305.81c-2.745.632-2.745.632-4.82 1.753l2 11q4.22-.962 8.437-1.938l2.432-.552c3.88-.607 3.88-.607 7.131-2.51v-6l12-1 .375 3.437c.958 8.02.958 8.02 3.625 15.563l-1.747.46c-9.389 2.517-18.69 5.319-28.003 8.102l-12.098 3.611A997 997 0 0 1 358 134l-.375-2.563c-.653-3.59-1.577-6.945-2.625-10.437l6-1c-.641-6.441-2.547-12.305-4.563-18.438l-.998-3.083A1959 1959 0 0 0 353 91c-5.827 1.03-11.182 2.22-16.625 4.625l-3.102 1.352L331 98l.176 3.219c.534 13.865.534 13.865-3.7 19.246-4.948 5.145-9.926 7.93-16.476 10.535.656 3.61.656 3.61 2 7 3.958-.565 6.666-1.809 10-4l.586 1.793c1.358 4.122 2.735 8.202 4.414 12.207l-2.594.796c-3.493 1.235-6.618 2.744-9.898 4.462l-1.79.933q-2.8 1.462-5.593 2.934l-3.82 1.996A3854 3854 0 0 0 295 164l-.93-2.367c-1-2.586-1-2.586-2.195-4.758C291 155 291 155 291 152c2.5-1.688 2.5-1.688 5-3q-2.119-4.534-4.25-9.063l-1.2-2.568c-2.32-4.926-4.777-9.682-7.55-14.369q-3.315 1.871-6.625 3.75l-1.871 1.055c-3.95 2.245-7.74 4.643-11.504 7.195a324 324 0 0 1-5.188 3.312c-1.258.8-1.258.8-2.542 1.614C253 141 253 141 250 140c-1.688-3.063-1.688-3.063-3-6-4.077.19-5.752.784-8.875 3.5-2.429 3.293-2.794 6.105-2.543 10.137 1.27 7.184 5.013 13.485 10.418 18.363 4.494 2.746 8.881 2.83 14 2 6.844-2.858 12.106-7.523 17-13l1.687 2.187c2.292 2.788 4.728 5.3 7.313 7.813-1.571 3.857-3.976 6.178-7 9l-1.46 1.441c-7.593 7.093-17.36 11.9-27.778 11.778-10.034-.795-17.305-5.324-24.215-12.403-2.039-2.394-3.347-4.921-4.547-7.816-2.847 1.303-4.989 2.708-7.266 4.852l-1.912 1.794-2.072 1.979-2.197 2.087c-6.223 5.947-12.37 11.974-18.478 18.038q-1.552 1.54-3.108 3.074c-6.068 5.994-11.762 12.125-17.073 18.808a138 138 0 0 1-5.269 6.18C153.882 234.877 145.361 246.88 137 259l-1.276 1.83C116.737 288.096 100.98 318.037 89 349l-1.134 2.875c-12.56 32.066-20.215 65.787-25.054 99.812l-.47 3.305c-2.54 18.906-3.723 37.75-3.655 56.82l.004 3.055A479 479 0 0 0 62 570l.34 3.063C65.287 599.327 70.925 624.86 79 650l1.902 6.102c19.377 61.107 53.748 117.11 96.798 164.363a564 564 0 0 1 4.296 4.786c5.449 6.136 11.104 12.036 16.905 17.836q2.205 2.211 4.396 4.434c6.233 6.27 12.789 11.964 19.703 17.479a278 278 0 0 1 3.25 2.793c17.307 15.07 36.412 28.18 56.125 39.894l2.145 1.28c3.137 1.83 5.933 3.27 9.48 4.033 5.302-9.973 10.544-19.974 15.625-30.063l1.326-2.612 1.213-2.423c.355-.706.71-1.413 1.077-2.14.89-1.748.89-1.748.759-3.762a1578 1578 0 0 1 10.614 5.17c1.78.872 3.567 1.733 5.353 2.594 18.874 9.304 18.874 9.304 22.435 17.884 2.305 9.068.917 16.737-3.632 24.813-4.377 6.28-9.445 8.125-16.77 9.539v2l18 7c1.631-2.447 2.592-4.285 3.604-6.98l.91-2.407.963-2.586 1-2.663q1.044-2.784 2.083-5.57 1.596-4.275 3.206-8.546 1.013-2.704 2.023-5.408l.975-2.592.89-2.397.79-2.112c.658-1.752.658-1.752.556-3.739l20 7c-1.904 5.713-3.834 11.383-5.918 17.027l-1.611 4.397a5563 5563 0 0 1-2.509 6.82q-1.225 3.328-2.442 6.658l-.767 2.07c-1.313 3.425-1.313 3.425-1.753 7.028q5.683 1.717 11.37 3.418 2.886.866 5.769 1.738l3.662 1.094 3.38 1.016c2.817.86 2.817.86 5.819.734l.48-3.148c1.922-11.806 4.586-22.209 14.52-29.852 7.548-5.366 17.134-5.004 26-4 9.243 1.97 17.777 6.98 23 15l1.125 1.715c2.874 5.2 3.237 10.03 3.25 15.847l.005 2.146c-.078 3.751-.506 7.124-1.466 10.757L468 967c1.643 1.643 3.646 1.341 5.91 1.535l2.7.239 3.452.288L491 970l1-30-17-1v-18l2 1c11.389 1.408 22.924 1.118 34.375 1.062q2.723-.008 5.445-.013c4.394-.01 8.787-.03 13.18-.049v18h-16v30c15.226.115 15.226.115 30.437-.438l2.055-.118A99 99 0 0 0 558 969c-.461-10.131-1.21-20.003-3-30-6.11-.1-11.974-.071-18 1l.035-2.414c.01-1.06.018-2.12.027-3.211l.036-3.164c-.097-3.163-.55-6.1-1.098-9.211l2.373.068c9.674.15 19.094-.655 28.699-1.722 2.583-.287 5.167-.562 7.752-.836l4.965-.537 2.323-.25c3.373-.377 6.61-.851 9.888-1.723l.402 3.43.535 4.445.264 2.262c.432 4.058.432 4.058 1.799 7.863l-18 1 .875 8.875.261 2.73c.601 5.885 1.608 11.616 2.864 17.395q5.625-.714 11.25-1.438l3.223-.408 3.105-.4 2.857-.365c2.242-.34 4.379-.793 6.565-1.389-.616-8.558-2.251-16.791-4.011-25.17-.494-2.352-.978-4.704-1.462-7.057l-.933-4.492-.44-2.127c-.763-3.68-.763-3.68-2.154-7.154l22-4 1 10a215 215 0 0 0 1.848 8.633l.533 2.311c.555 2.395 1.118 4.788 1.681 7.181q.573 2.46 1.143 4.922Q628.594 950.026 630 956l11-2c-1.48-7.284-3.57-14.25-5.875-21.313l-1.027-3.185c-2.322-7.182-4.7-14.345-7.098-21.502l1.855-.474c8.4-2.213 16.607-4.937 24.832-7.714l4.186-1.404A6090 6090 0 0 0 668 895q1.261 2.87 2.5 5.75l1.406 3.234C673 907 673 907 673 911l-20 7 2 9c7.115-2.062 14.063-4.402 21-7l.25 2.375c.994 4.803 2.837 9.123 4.75 13.625l-1.688.332c-5.345 1.11-10.243 2.64-15.312 4.668v2c11.574-2.254 22.209-5.225 33-10-.628-4.099-1.978-7.363-3.8-11.078l-1.714-3.52-1.799-3.652A2787 2787 0 0 1 683 901l-1.345-2.76-1.135-2.412-.978-2.05C679 892 679 892 680 889a75 75 0 0 1 6.336-3.54l1.925-.988c2.033-1.042 4.074-2.07 6.114-3.097q2.052-1.05 4.102-2.102c9.951-5.082 18.596-8.58 29.96-5.273 5.244 4.093 9.165 9.43 10.563 16 .742 6.43-1.41 11.254-4 17l3.25 2.125 1.828 1.195c1.933.928 1.933.928 3.811-.13 17.039-9.607 33.41-21.817 48.158-34.635 2.836-2.454 5.723-4.825 8.64-7.18 4.366-3.553 8.577-7.241 12.731-11.04a178 178 0 0 1 4.203-3.711c6.212-5.297 11.949-11.042 17.706-16.821a2175 2175 0 0 1 5.206-5.2c7.742-7.736 15.064-15.637 21.78-24.29l1.416-1.817 2.879-3.705a979 979 0 0 1 3.935-5.021C884.521 778.88 896.785 759.723 908 740l1.517-2.664c19.49-34.49 33.35-71.113 43.483-109.336l.834-3.053C959.978 602.452 964.126 579.256 966 556l.259-2.914c1.008-12.762.985-25.54.991-38.336l.002-3.693C967.234 490.88 966.54 471.02 964 451l-.472-3.814C955.808 387.359 934.403 329.396 903 278l-1.428-2.352C887.706 252.914 871.684 231.883 854 212l-1.39-1.57c-6.5-7.303-13.339-14.28-20.223-21.218a2060 2060 0 0 1-4.207-4.26 201 201 0 0 0-16.776-15.018c-3.529-2.839-6.805-5.9-10.115-8.989-2.308-1.961-4.653-3.464-7.289-4.945l-.516 2.414c-2.132 9.325-4.769 14.646-12.484 20.387-5.612 3.365-12.706 2.926-19 2.199-11.664-3.94-19.323-10.797-24.969-21.547C736 157 736 157 736 154l2.3-1.242 3.012-1.633 2.989-1.617c2.795-1.515 2.795-1.515 5.699-3.508l.297 1.758c1.119 5.845 2.471 10.589 7.273 14.531 3.264 2.152 5.123 2.711 9.117 2.711 3.687-1.113 5.198-1.784 7.313-5 1.086-3.325 1.086-3.325 0-7-5.607-7.12-14.048-11.067-22-15l1-7q-3.432-2.258-6.875-4.5l-1.973-1.3c-3.302-2.38-3.302-2.38-7.152-3.2v-2l-2 1 1 3c.75 7.126-1.054 12.041-5 18-4.86 5.734-9.9 7.409-17.156 8.25-9.634.543-17.817-3.978-24.844-10.25-4.691-4.798-9-11.078-9-18q2.685-1.256 5.375-2.5l3.023-1.406C691 117 691 117 693 117l.664 2.012c2.433 6.775 4.732 10.686 11.336 13.988 4.562.374 6.957.565 11-1.625 2.188-2.253 2.188-2.253 2.75-5.25-1.135-4.728-3.757-6.538-7.75-9.125-4.657-2.55-9.396-5.004-14.36-6.902-.54-.363-1.082-.725-1.64-1.098-.223-1.988-.223-1.988-.063-4.313-.024-2.443-.024-2.443-.937-4.687-3.418-2.38-7.06-3.706-11-5l-3-1a409 409 0 0 0-6.563-.25c-6.583-.443-12.172-1.599-17.437-5.75l-1.805-2.996c-2.716-3.717-5.435-4.671-9.695-5.879l-2.012-.64C639.148 77.457 636.526 77 633 77q-1.19 5.655-2.375 11.312l-.672 3.19A1494 1494 0 0 0 628 101l-.61 3.001-.554 2.854-.49 2.501c-.417 3.19-.346 6.427-.346 9.644l-19-3c-1.06-2.864-2.12-5.729-3.21-8.68l-3.089-8.3q-1.074-2.888-2.141-5.78a2902 2902 0 0 0-3.083-8.295l-.963-2.62-.91-2.426-.794-2.14C592.031 75.8 592.031 75.8 590 74a2012 2012 0 0 0-2 9.625l-.578 2.738c-.944 4.619-1.674 8.893-1.422 13.637l5 1-1 13-3.043-.586A626 626 0 0 0 561 109l1-13h7c3.345-15.376 3.345-15.376 5-31-23.09-4-45.56-5.335-69-5"/><path fill="#243B98" d="M505 60c23.304-.526 46.014.934 69 5-.59 10.532-2.823 20.705-5 31h-7c.03 1.547.03 1.547.063 3.125C562 103 562 103 561 109l29 5 1-13-5-1c.614-8.802 2.295-17.36 4-26 2.062 2.062 2.61 3.22 3.604 5.899l.91 2.426.963 2.62 1 2.682q1.58 4.246 3.148 8.498l2.14 5.754c1.752 4.704 3.493 9.413 5.235 14.121l19 3v-7q.431-3.167 1.023-6.309l.657-3.513.695-3.615.672-3.604c1.14-6.042 2.377-12.016 3.953-17.959 6.59.599 12.99 2.203 19 5 2.125 2.938 2.125 2.938 4 6 6.435 4.813 12.628 5.351 20.445 5.625 6.405.676 11.861 3.528 17.555 6.375a252 252 0 0 1-.375 4.063c.044 2.546.044 2.546 1.375 4.937 4.217 3.13 9.346 4.97 14.114 7.102 3.739 1.78 6.175 3.78 8.886 6.898.75 3.125.75 3.125 0 6-2.834 3.366-4.56 3.944-8.937 4.5-4.313-.26-6.798-1.598-10.063-4.5-2.858-3.77-5.032-7.338-6-12-4.472 1.418-8.711 3.113-13 5 1.415 8.371 5.112 15.133 11.742 20.465 7.672 5.216 14.946 8.33 24.258 7.535 6.48-1.274 11.722-3.901 16-9 3.988-6.372 4.977-12.113 3.5-19.5l-.5-1.5h2v2l2.137.773c3.133 1.343 5.82 2.994 8.676 4.852l2.957 1.914L753 131l-1 7 3.29 1.758 4.335 2.367 2.16 1.148c4.88 2.687 8.567 5.49 12.215 9.727.693 4.02.689 5.953-1.562 9.375-3.355 2.236-5.388 2.693-9.438 2.625-5.66-2.116-8.826-5.418-11.309-10.84C751 152 751 152 750 146l-14 8c1.873 9.364 7.141 16.624 15 22 8.266 5.089 16.569 6.66 26.133 4.523 5.461-2.032 10.396-5.79 13.16-10.925 1.853-4.45 3.2-8.781 3.707-13.598 7.716 5.556 14.857 11.736 22 18l2.797 2.45c7.069 6.343 13.79 13.034 20.515 19.738l1.444 1.435c5.64 5.616 11.087 11.315 16.244 17.377q1.495 1.712 2.992 3.422c5.875 6.762 11.507 13.621 16.768 20.879 1.372 1.88 2.765 3.742 4.158 5.605 58.19 78.421 86.247 172.291 86.395 269.344l.01 3.51c.039 22.984-1.827 45.53-5.323 68.24l-.38 2.536c-6.71 43.648-20.774 89.196-41.458 128.246-1.378 2.63-2.715 5.281-4.053 7.933-9.354 18.432-19.445 36.47-31.761 53.11a284 284 0 0 0-4.727 6.57 342 342 0 0 1-25.856 32.636 600 600 0 0 0-3.61 4.064c-5.806 6.548-11.878 12.783-18.076 18.956a1954 1954 0 0 0-4.929 4.935c-5.543 5.548-11.148 10.959-17.15 16.014q-1.567 1.35-3.133 2.703A615 615 0 0 1 784.67 881.7a445 445 0 0 0-4.565 3.617c-7.502 5.936-15.332 11.359-23.23 16.746l-1.707 1.169q-2.428 1.657-4.863 3.304l-2.876 1.95C745 910 745 910 742 911c-2.517-1.073-4.668-2.548-7-4l.875-1.941c2.563-5.971 4.524-10.81 2.395-17.278-2.25-5.508-5.003-11.19-10.57-13.902-9.544-3.107-17.558-.657-26.152 3.624A335 335 0 0 0 695 881l-2.318 1.262A623 623 0 0 0 679 890c1.31 5.147 3.163 9.663 5.625 14.375a2124 2124 0 0 1 2.133 4.191l1.11 2.184c1.927 3.83 3.788 7.691 5.632 11.563l1.061 2.19C697 929.65 697 929.65 697 933c-10.913 4.563-21.282 8.185-33 10v-2q3.403-1.259 6.813-2.5l1.947-.723C675.65 936.73 677.9 936 681 936l-1.094-2.738-1.406-3.574-1.406-3.551C676 923 676 923 676 920l-1.712.643q-3.83 1.432-7.663 2.857l-2.695 1.012-2.578.957-2.38.888C657 927 657 927 655 927l-2-9 20-7c0-4.243-.828-6.405-2.5-10.25l-1.406-3.266L668 895l-3.225 1.086q-5.94 1.997-11.881 3.986-2.568.861-5.136 1.726-3.697 1.243-7.395 2.48l-2.308.78c-3.665 1.221-7.232 2.304-11.055 2.942l.854 2.548q1.602 4.777 3.199 9.555l1.373 4.099C641 949.765 641 949.765 641 954l-11 2a5456 5456 0 0 1-3.845-16.333q-.65-2.777-1.31-5.552-.946-3.996-1.876-7.998l-.597-2.491-.546-2.365-.484-2.059C621 917 621 917 621 911l-22 4 1.688 6.438c1.916 7.535 3.521 15.129 5.062 22.75l.675 3.292.622 3.125.557 2.786c.392 2.58.468 5.004.396 7.609q-5.906 1.004-11.812 2l-3.393.578-3.252.547-3 .508C584 965 584 965 581 965a6090 6090 0 0 1-2-12.25l-.578-3.512-.547-3.379-.508-3.11C577 940 577 940 577 936l18-1-.937-3.937c-1.106-4.645-1.583-9.321-2.063-14.063l-3.602.586C571.04 920.34 553.608 922.54 536 922l.496 2.602c.493 3.322.604 6.418.567 9.773l-.028 3.21L537 940l2.813-.5c5.044-.737 10.101-.583 15.187-.5 1.79 9.997 2.539 19.869 3 30-4.512.83-8.987 1.298-13.562 1.563l-2.174.128c-9.419.498-18.835.371-28.264.309v-30h16v-18l-8.04.035q-3.925.012-7.854.02-2.693.008-5.387.02c-29.29.14-29.29.14-33.719-2.075v18l17 1-1 30-10.937-.875-3.453-.261-2.7-.231-2.777-.222L469 968c-1.369-2.738-.372-4.205.484-7.002 2.475-9.588 1.315-19.983-3.652-28.475C460.245 924.828 452.401 919.77 443 918c-9.75-.71-18.909-1.308-27 5-10.042 8.903-12.46 19.068-14 32-7.033-1.27-13.801-3.012-20.625-5.125l-2.754-.84Q375.31 948.025 372 947c2.403-8.632 5.5-16.987 8.625-25.375q1.134-3.046 2.263-6.095 1.015-2.74 2.036-5.48c1.174-3.175 1.174-3.175 2.076-7.05l-20-7-3 10a437 437 0 0 1-3.137 8.633l-.861 2.311a4015 4015 0 0 1-2.69 7.181l-1.837 4.922Q353.242 935.026 351 941l-5.207-1.89-2.929-1.064c-3.63-1.326-7.248-2.682-10.864-4.046v-2l1.758-.516c7.705-2.39 12.522-4.666 16.617-11.922 3.369-7.26 4.004-14.136 2.027-21.914-4.28-10.314-16.604-15.074-25.964-19.586q-1.819-.89-3.635-1.783-4.395-2.153-8.803-4.279l-.762 2.5c-1.413 3.994-3.166 7.698-5.047 11.488l-1.113 2.254q-1.161 2.343-2.327 4.682c-1.191 2.394-2.367 4.794-3.542 7.195q-1.132 2.28-2.268 4.557l-1.06 2.18c-2.538 5.03-2.538 5.03-5.881 6.144a91 91 0 0 1-7.437-3.937l-2.18-1.259c-6.308-3.68-12.393-7.629-18.383-11.804l-1.893-1.308C245.665 883.322 229.917 871.317 215 858l-2.254-1.986c-6.186-5.493-12.107-11.22-17.943-17.08a1625 1625 0 0 0-4.5-4.495C184.99 829.132 179.869 823.721 175 818a1475 1475 0 0 0-3.176-3.605c-6.425-7.32-12.624-14.737-18.446-22.549a829 829 0 0 0-2.96-3.938C136 768.825 123.482 748.975 112 728l-1.363-2.463C80.974 671.77 65.22 611.917 60 551l-.294-3.416c-.87-11.353-.95-22.702-.956-34.084l-.002-3.14c.018-17.644.885-34.858 3.252-52.36l.536-4.082C64.998 435.374 68.272 417.116 73 399l.87-3.351c14.974-56.795 41.43-112.495 78.831-158.047a267 267 0 0 0 4.065-5.168c5.011-6.498 10.15-12.733 15.75-18.739a208 208 0 0 0 5.441-6.168c4.956-5.683 10.328-10.962 15.667-16.282q2.714-2.707 5.417-5.423C215.145 169.706 215.145 169.706 221 167l.848 1.504c5.675 9.617 11.884 14.952 22.59 18.246L247 187l2.102.227c11.506.694 20.456-4.98 28.898-12.227l2.875-2.187c2.084-1.778 3.591-3.553 5.125-5.813-1.41-3.039-3.089-5.594-5.125-8.25l-1.633-2.14L278 155l-2.937 2.625c-7.004 6.018-13.136 10.793-22.532 10.645-4.63-.493-7.149-2.709-10.156-6.106-4.713-5.913-6.947-11.353-6.754-18.976.686-3.962 2.354-5.558 5.379-8.188 3.313-.875 3.313-.875 6-1l4 7c5.198-1.231 8.75-3.837 12.988-6.914 5.8-4.017 11.934-7.512 18.012-11.086 2.29 2.096 3.652 3.982 4.938 6.8l1.023 2.214 1.039 2.298q1.03 2.245 2.063 4.489l.988 2.158c1.26 2.71 2.594 5.378 3.949 8.041l-5 3c.569 3.982 1.89 6.606 4 10v2l2.814-1.469q5.158-2.688 10.32-5.367 2.236-1.162 4.47-2.328 3.208-1.673 6.42-3.336l2.023-1.06C325.772 148 325.772 148 328 148l-1.094-2.555-1.406-3.32-1.406-3.305C323 136 323 136 323 134l-3.312 2c-2.625 1.585-3.514 2-6.688 2-1.46-2.647-2-3.894-2-7l2.414-1.066c6.529-3.042 11.668-5.76 15.586-11.934l1.14-1.695c1.293-3.466 1.069-6.91.985-10.555l-.027-2.258c-.024-1.83-.06-3.661-.098-5.492q3.81-1.478 7.625-2.937l2.16-.842 2.13-.81 1.935-.747c2.685-.83 5.374-1.247 8.15-1.664 1.343 4.08 2.673 8.165 4 12.25l1.156 3.512 1.094 3.379 1.016 3.11C361 116 361 116 361 120l-6 1 .656 1.828.844 2.422.844 2.39C358 130 358 130 358 134l1.865-.563q9.61-2.9 19.223-5.79 3.586-1.08 7.172-2.163 5.157-1.555 10.314-3.105l3.236-.979 3.033-.91 2.658-.8c2.485-.686 4.965-1.217 7.499-1.69l-.875-1.875C410.121 110.557 409 104.917 409 99l-12 1v6c-5.968 2.431-11.655 3.854-18 5l-2-11c9.571-3.286 9.571-3.286 14-4a979 979 0 0 0-.437-4.25l-.247-2.39c-.292-2.184-.737-4.237-1.316-6.36l-2.45.656-3.238.844-3.199.844c-2.824.595-5.241.784-8.113.656-1.316-3.62-2-6.096-2-10a742 742 0 0 1 4.813-2l2.707-1.125C380 72 380 72 383 72l2 5a319 319 0 0 0 20-4.5 319 319 0 0 1 20-4.5q.646 5.844 1.282 11.688.323 2.96.652 5.92l.41 3.779.38 3.475c.24 2.736.33 5.394.276 8.138h-7l1 14 31-5-1-12h-7c-.631-10.68-1.173-21.298-1-32 2.564 2.564 3.533 5.148 5.004 8.469l.859 1.927q1.355 3.05 2.7 6.104 1.353 3.053 2.71 6.104 1.229 2.768 2.452 5.539A122 122 0 0 0 460 99q2.938-.212 5.875-.437l3.305-.247c2.767-.146 2.767-.146 4.82-1.316 1.008-2.67 1.008-2.67 1.875-5.941l1.047-3.71L478 83.438l1.078-3.83C480.81 73.426 482.49 67.24 484 61h1c.512 3.457 1.007 6.916 1.5 10.375l.434 2.926c.885 6.28 1.254 12.36 1.066 18.699l-5 1v14l2.66-.496c5.89-.842 11.842-.609 17.777-.567l3.663.014q4.45.02 8.9.049l-1-15h-7c-.507-4.02-1.004-8.041-1.5-12.062l-.434-3.436c-.678-5.54-1.26-10.92-1.066-16.502m-52.437 73.125-2 .316C381.102 144.56 314.954 174.514 262 221l-2.219 1.918A704 704 0 0 0 254 228l-2.145 1.863c-5.54 4.879-10.814 9.99-16.042 15.2l-2.016 2.001c-4.468 4.482-8.682 9.13-12.797 13.936l-1.433 1.655A355 355 0 0 0 201 286l-2.254 3.02C184.847 307.824 173.367 328.078 163 349l-1.076 2.148c-2.106 4.229-4.06 8.513-5.924 12.852l-1.11 2.57c-11.937 27.932-20.131 57.04-25.077 86.993l-.47 2.823c-2.853 18.262-3.691 36.403-3.593 54.864l.011 3.27c.064 15.569.139 31.03 2.239 46.48l.522 3.922c8.087 59.187 29.619 114.437 62.666 164.14l1.127 1.697C212.26 760.665 236.36 789.83 264 813l2.703 2.367c25.642 22.343 55.24 40.751 86.226 54.698 1.814.819 3.617 1.66 5.419 2.505 32.826 14.888 69.136 23.021 104.652 28.18l2.208.325c16.368 2.383 32.643 3.135 49.167 3.112l2.504-.001C585.04 904.05 652.694 885.526 711 850l2.543-1.544c9.87-6.027 19.362-12.303 28.457-19.456q1.725-1.326 3.453-2.648c6.541-5.038 12.81-10.234 18.852-15.868a242 242 0 0 1 6.363-5.64c5.138-4.482 9.949-9.277 14.77-14.094l2.697-2.66c6.06-6.046 11.57-12.367 16.865-19.09l1.478-1.859C832.56 734.103 854.003 697.95 870 659l1.061-2.55c6.183-14.98 10.648-30.436 14.986-46.027q.88-3.166 1.792-6.325c3.46-12.137 5.23-24.645 7.161-37.098l.518-3.251C903.921 508.836 898.155 449.964 882 397l-.909-3.017C866.75 346.985 841.721 303.407 810 266c-.44-.523-.882-1.045-1.336-1.583a427 427 0 0 0-24.693-26.762c-1.913-1.91-3.812-3.833-5.711-5.757-7.958-7.998-16.257-15.11-25.26-21.898-2.09-1.637-4.17-3.288-6.25-4.937C706.549 173.929 659.232 152.142 610 140l-3.594-.95c-9.493-2.441-19.112-4.099-28.781-5.675l-3.795-.625A568 568 0 0 0 562 131l-2.122-.293c-13.086-1.745-26.075-2.018-39.265-1.968-3.345.01-6.69 0-10.035-.012-19.496-.014-38.752 1.353-58.015 4.398"/><path fill="#A8D132" d="m655 199 2.03 1.365C664.882 205.7 672.053 211.517 679 218a689 689 0 0 0 4 3.438c12.79 11.141 12.79 11.141 15 15.562 4.024-1.48 7.57-3.403 11.254-5.59l1.766-1.046q1.838-1.09 3.673-2.186 2.798-1.668 5.602-3.324c6.136-3.56 6.136-3.56 11.963-7.587C734 216 734 216 736 216c.273 8.247-.469 16.265-1.48 24.437-.478 3.876-.933 7.754-1.387 11.633l-.29 2.468c-.942 8.144-1.719 16.302-2.484 24.465-2.349 25.05-5.337 50.021-8.359 74.997-4.507-1.09-8.61-2.821-12.875-4.625l-2.602-1.099c-5.891-2.516-11.614-5.261-17.316-8.182-9.39-4.74-19.021-9.01-28.572-13.415q-5.143-2.376-10.28-4.765C634.975 314.776 619.513 307.842 604 301v-3a105 105 0 0 1 6.563-5.937l2.03-1.725a803 803 0 0 1 14.47-11.9l1.836-1.479A139 139 0 0 1 640 269c-11.534-20.027-33.436-31.074-55-37-11.43-2.789-22.713-4.147-34.465-4.203l-2.978-.021q-4.747-.025-9.495-.026l-3.271-.003c-16.162.01-31.818.637-47.791 3.253q-2.82.406-5.64.809c-55.764 8.368-111.52 34.182-153.653 71.688-2.174 1.914-4.425 3.72-6.707 5.503 1.523-4.12 3.502-7.89 5.688-11.687l1.083-1.884c3.124-5.364 6.59-10.402 10.229-15.429q1.397-1.984 2.79-3.973C349.443 263.67 358.314 251.581 368 240l1.274-1.552C382.435 222.425 396.791 207.666 414 196l3.148-2.156C439.643 179.272 465.6 170.096 492 166l2.764-.449C551.01 156.683 607.559 167.047 655 199M174 406c22.371.6 44.677 1.949 67.008 3.386q6.96.446 13.922.885 13.535.86 27.07 1.729c1.256 3.768.568 4.49-1.07 8.02-3.63 8.34-6.175 16.97-8.805 25.668l-1.598 5.24c-4.675 15.373-9.043 30.819-13.21 46.338l-.831 3.08q-.774 2.876-1.534 5.756l-.69 2.574-.595 2.247c-.694 2.16-1.602 4.077-2.667 6.077l-1.914-2.832C241.659 503.243 233.893 492.591 226 482c-20.863 19.95-29.454 48.548-30.281 76.676-.14 9.991 1.123 19.581 3.281 29.324l.456 2.071C203.878 609.164 213.32 627.356 225 643l1.392 1.87c4.652 6.195 9.377 12.24 15.018 17.575 1.719 1.681 3.234 3.462 4.778 5.305C262.14 686.15 283.96 701.096 305 713l3.8 2.21c7.229 4.174 14.317 7.978 22.2 10.79q2.504.991 5 2v1c-6.923-.476-13.292-1.648-19.937-3.625l-2.76-.812C283.027 715.483 254.813 701.697 230 682l-2.61-2.027c-5.784-4.595-11.234-9.504-16.64-14.535l-2.005-1.858c-4.554-4.287-8.696-8.817-12.745-13.58l-2.484-2.844C161.189 609.256 145.313 562.784 148 513c2.125-25.95 11.507-50.811 28.93-70.324l1.43-1.622a249 249 0 0 1 4-4.335c1.974-2.604 1.974-2.604 1.163-5.528L182 428l-.932-1.987a420 420 0 0 0-4.322-8.824l-1.066-2.193-.977-1.963c-.84-2.43-.75-4.477-.703-7.033"/><path fill="#A8D231" d="M798 429c16.39 13.41 29.56 29.6 40 48l1.076 1.823C850.342 497.972 856.92 520.057 860 542l.344 2.426c5.315 46.283-10.165 93.903-38.936 130.156a599 599 0 0 1-10.658 12.856l-1.521 1.788c-3.158 3.664-6.43 7.023-10.217 10.051-1.7 2.895-.81 5.64-.012 8.723 1.083 3.436 2.31 6.81 3.563 10.188a834 834 0 0 1 1.94 5.292l.87 2.341C806 728 806 728 806 732h-98c3.375-11.251 3.375-11.251 5.034-15.803l1.124-3.1 1.194-3.261 1.267-3.484q1.327-3.644 2.658-7.287a8552 8552 0 0 0 3.97-10.893 4163 4163 0 0 1 13.993-37.907l1.058-2.817.927-2.468C740 643 740 643 741 641c5.356 1.874 9.563 5.062 14.16 8.32 2.864 2.02 2.864 2.02 6.84 1.68a62 62 0 0 0 5.5-5.937l1.588-1.91C785.38 623.258 798.42 601.268 807 577l.846-2.308C818.933 544.199 820.727 508.74 814 477c-.15-.75-.3-1.499-.456-2.27-2.992-14.44-8.822-27.83-14.614-41.326C798 431 798 431 798 429"/><path fill="#F06958" d="M590 621c0 4.14-1.544 7.593-2.965 11.426l-1.912 5.246-1.02 2.787c-21.931 60.11-35.512 121.237-36.665 185.354l-.131 6.76q-.159 8.213-.307 16.427c-2.224-2.153-3.667-3.99-5.023-6.781l-1.135-2.273-1.217-2.446c-10.68-20.817-24.903-38.304-41.625-54.5-3.375 1.125-3.617 1.531-5.348 4.438l-1.32 2.19-1.394 2.372-1.45 2.416a1418 1418 0 0 0-7.398 12.56l-1.385 2.368a858 858 0 0 0-2.62 4.523A231 231 0 0 1 474 819h-1l-.025-1.761C472.351 773.19 471.148 731.445 458 689l-.852-2.768c-4.53-14.554-9.84-28.967-16.342-42.765l-1.138-2.42-1.042-2.146C438 637 438 637 439 634l2.684 1.723c26.233 16.5 55.505 23.11 86.378 16.777 22.956-5.381 43.473-17.174 61.938-31.5"/><path fill="#1A3797" d="m771 398 4 2v2l1.652.281c28.865 8.837 55.883 47.2 69.473 72.625C850.687 483.7 854.542 492.722 858 502l1.117 2.938c5.237 14.613 7.998 30.296 8.086 45.804l.017 2.448q.014 2.554.02 5.108c.01 2.536.04 5.072.072 7.608.097 14.865-1.637 29.43-5.625 43.782l-.639 2.352c-3.692 13.202-8.96 25.7-15.048 37.96l-.93 1.887c-7.365 14.815-16.966 28.459-28.27 40.558l-1.681 1.844a148 148 0 0 1-3.347 3.54c-2.755 3.031-3.737 4.504-3.96 8.698 1.373 6.538 4.23 12.745 6.75 18.91q1.537 3.81 3.067 7.622l1.377 3.384C820 739 820 739 820 740H696c2.245-10.104 2.245-10.104 4.215-14.695l1.313-3.12 1.41-3.31a555 555 0 0 0 11.75-30.75l.697-1.997c.23-.655.458-1.311.694-1.987 2.574-7.362 5.222-14.683 8.046-21.953 4.632-11.942 8.747-24.065 12.875-36.188q2.844 1.386 5.684 2.785l3.197 1.567c3.663 1.936 6.959 4.177 10.28 6.644L758 638c3.442-1.147 3.875-1.855 5.855-4.762l1.625-2.37 1.707-2.556 1.765-2.616c4.71-7.052 9.068-14.202 13.048-21.696l1.026-1.924c4.825-9.114 8.83-18.23 11.974-28.076l.726-2.233c15.379-47.61 14.876-101.058-7.788-146.517-2.936-5.687-6.19-11.065-9.938-16.25a2887 2887 0 0 1-3.875-5.5l-1.805-2.531C771 399 771 399 771 398m27 31c1.594 4.994 3.317 9.871 5.305 14.723 19.487 47.805 18.465 99.353-1.401 146.9-1.777 3.968-3.746 7.799-5.889 11.58a296 296 0 0 0-3.23 5.918C788.41 616.202 783.642 623.725 778 631l-1.703 2.25c-4.9 6.412-10.104 12.575-15.297 18.75-4.647-2.125-8.798-5.08-13.043-7.898-3.209-2.32-3.209-2.32-6.957-3.102-5.993 15.098-11.538 30.35-17.062 45.625q-2.61 7.208-5.223 14.414l-1.25 3.45a1263 1263 0 0 1-8.502 22.778c-1.074 2.564-1.074 2.564-.963 4.733h98c-.685-4.11-1.295-7.207-2.664-11.004l-.961-2.744a992 992 0 0 0-2.023-5.64l-.954-2.74-.885-2.472c-.604-2.824-.338-4.646.487-7.4 1.75-2.07 1.75-2.07 4-4.125 4.217-4.037 7.924-8.256 11.559-12.82a279 279 0 0 1 5.289-6.422c20.678-24.628 33.38-55.16 39.152-86.633l.684-3.68c2.585-16.295 2.045-33.085-.684-49.32l-.625-3.719C853.049 504.473 840.986 478.078 823 455l-2.05-2.68A184.3 184.3 0 0 0 799 429z"/><path fill="#FEFDFD" d="m445 650 1.677.763q3.848 1.746 7.698 3.487l2.637 1.2c25.342 11.45 49.55 15 76.988 8.55 1.997-.348 3.997-.687 6-1l-.555 1.659q-.801 2.397-1.598 4.796-.784 2.357-1.576 4.712c-3.528 10.594-6.107 21.216-8.083 32.208l-.627 3.452c-2.238 13.045-2.748 26.045-2.746 39.249a889 889 0 0 1-.04 6.672c-.038 10.215.818 20.137 2.225 30.252-3.493-1.357-6.527-2.858-9.687-4.875-9.15-5.506-17.408-8.952-28.313-7.125-7.09 3.226-11.924 10.008-15 17h-1l-.152-3.127a4714 4714 0 0 0-.593-11.747 2049 2049 0 0 1-.25-5.035c-1.936-39.884-10.362-78.408-25.939-115.255C445 653 445 653 445 650"/><path fill="#EF6A58" d="M554 361c1.347 2.695.676 3.653-.223 6.496l-.873 2.84c-.32 1.023-.638 2.047-.966 3.101C545.38 395.263 540.974 417.418 538 440l-.36 2.642c-1.54 11.706-1.818 23.379-1.827 35.17l-.004 2.08c.003 13.416.684 26.771 2.191 40.108-2.219-2.813-3.946-5.631-5.566-8.824l-1.458-2.844-1.538-3.02c-5.642-10.95-11.566-21.71-18.215-32.085C510 471 510 471 510 468h-2l-.476 1.715c-2.133 7.41-4.84 14.545-7.649 21.723l-2.695 6.933-1.196 3.06c-.705 1.84-1.36 3.7-1.984 5.569h-2l-.272-1.74c-4.389-27.97-9.247-55.85-14.353-83.697l-.57-3.112c-2.077-11.337-4.194-22.661-6.54-33.946-1.19-5.808-1.993-11.575-2.265-17.505 3.508 1.272 6.616 2.892 9.809 4.818 13.705 8.259 27.771 12.313 43.691 8.995 10.042-2.535 17.633-7.194 25.5-13.813l2.117-1.781A537 537 0 0 0 554 361"/><path fill="#213294" d="m608 595 1 2c-.707 2.072-1.522 4.108-2.375 6.125q-.853 2.065-1.7 4.133l-.942 2.302c-3.52 8.737-6.734 17.6-9.983 26.44l-1.334 3.63c-9.104 24.89-17.367 49.983-23.105 75.891a403 403 0 0 1-1.795 7.53c-11.027 45.308-13.132 91.968-13.62 138.41-.09 6.88-.455 13.69-1.146 20.539-1.656-2.484-2.891-4.756-4.145-7.445l-1.28-2.727-1.388-2.953C532.914 840.958 518.956 816.837 498 794c-4.345 7.087-8.389 14.298-12.312 21.625-3.887 7.217-7.789 14.422-11.813 21.563l-1.072 1.902c-4.036 7.135-4.036 7.135-5.803 9.91h-1l-.031-1.717q-.386-21.132-.841-42.264-.114-5.213-.21-10.425c-.503-26.85-2.588-54.437-8.918-80.594q-.449-1.985-.895-3.969C446.866 674.341 432.436 639.571 414 608c3.492 0 4.096.563 6.781 2.64l2.272 1.729 2.447 1.881c16.964 12.735 34.595 24.695 55.5 29.75l1.83.504c29.02 7.396 58.157-2.488 83.211-16.785 15.077-8.997 29.54-20.3 41.959-32.719m-18 26-2.648 2.055c-29.841 22.754-63.544 35.26-101.413 30.566-17.303-2.86-33.18-10.36-47.939-19.621.56 4.623 1.836 8.048 3.938 12.188C454.503 672.126 462.832 700.694 468 729l.61 3.133c5.01 28.47 3.99 58.073 4.39 86.867 2.412-2.33 4.007-4.521 5.637-7.465l1.489-2.66 1.562-2.812c4.46-7.934 9.07-15.616 14.312-23.063 4.4 2.01 7.255 4.91 10.625 8.313l1.884 1.9C524.305 809.422 535.42 829.162 546 849h1l.044-3.946c.296-24.495.63-48.753 3.956-73.054l.434-3.345c6.014-46.13 18.506-90.808 34.807-134.284l.76-2.042q1.024-2.735 2.056-5.467c1.1-2.835 1.1-2.835.943-5.862"/><path fill="#FCFCFD" d="M509 40c1.095 3.285 1.1 5.737 1.063 9.188l-.028 3.292L510 55h-6l.367 2.427c.551 3.67 1.092 7.34 1.633 11.01l.578 3.819C507.552 78.915 508.234 85.27 508 92h7c1 3 1 3 1 15l-33 1c-1.123-4.49-2.156-9.688 0-14 2.563-.625 2.563-.625 5-1q-.714-6.126-1.437-12.25l-.409-3.512-.4-3.379-.365-3.11A52 52 0 0 0 484 64l-.703 2.69q-1.298 4.956-2.605 9.908-.564 2.14-1.123 4.283-.807 3.084-1.624 6.166l-.984 3.745c-.79 2.635-1.516 4.878-2.961 7.208-1.988.828-1.988.828-4.312 1.25l-2.301.453c-2.487.31-4.883.35-7.387.297-5.387-10.523-10.343-21.133-15-32v30h7c1.217 2.434 1.32 4.418 1.563 7.125l.253 2.758L454 110c-5.476 1.695-10.901 2.753-16.562 3.625l-2.499.406c-4.359.683-8.51 1.127-12.939.969-1.206-4.672-1.094-9.215-1-14h7l-.402-3.367q-.686-5.77-1.354-11.544-.295-2.512-.6-5.023c-.72-6.362-.743-12.668-.644-19.066l-7 1c-.954-4.77-1.04-9.161-1-14q7.125-1.076 14.252-2.136 2.423-.362 4.844-.728 3.489-.525 6.978-1.042l2.176-.332c3.614-.531 7.096-.887 10.75-.762l1.242 3.324 1.633 4.364c.27.72.539 1.442.816 2.185 1.396 3.726 2.811 7.44 4.309 11.127 1.476-2.786 2.541-5.492 3.438-8.512l.773-2.545a1522 1522 0 0 0 1.578-5.297l.774-2.533.69-2.319C472 42 472 42 474 41a208 208 0 0 1 8.063-.562l2.401-.13c8.18-.401 16.349-.401 24.536-.308"/><path fill="#213294" d="M569 333c1.398 3.776.571 6.236-.625 10.004l-1.132 3.642-.614 1.933c-1.073 3.385-2.109 6.782-3.145 10.179l-.64 2.097C557.236 379.303 552.804 398.105 549 417c-.155.738-.31 1.477-.468 2.238-7.525 36.44-5.877 76.325-1.97 113.102.403 3.942.543 7.82.5 11.785l-.027 3.383L547 550c-2.7-3.244-4.958-6.456-6.996-10.148l-1.674-3.013-1.768-3.214q-1.871-3.378-3.746-6.754l-1.917-3.461c-2.38-4.275-4.8-8.528-7.223-12.78-4.802-8.432-9.539-16.846-13.676-25.63a809 809 0 0 0-14.14 35.098C493.98 525.095 492 530.05 490 535h-1l-.329-2.39c-3.49-24.876-7.972-49.553-12.608-74.235l-.45-2.388q-2.623-13.959-5.273-27.912-1.38-7.281-2.75-14.564-.934-4.974-1.871-9.948l-.877-4.67a1334 1334 0 0 0-7.006-34.75c-1.37-6.371-2.363-12.641-2.836-19.143 3.412 2.132 6.42 4.331 9.375 7.063 14.379 12.778 29.095 21.372 48.664 21.218 20.577-1.46 35.8-16.85 48.774-31.531A240 240 0 0 0 569 333m-19.5 32.125c-11.729 10.57-25.32 17.391-41.473 17.148-13.228-1.194-24.364-6.03-35.27-13.492-2.49-1.962-2.49-1.962-4.757-1.781.237 2.44.49 4.876.75 7.313l.188 1.974c.703 6.422 2.073 12.673 3.43 18.98 2.044 9.54 3.78 19.132 5.507 28.733l1.046 5.784c4.635 25.694 9.046 51.421 13.079 77.216h2l.854-2.32q1.598-4.335 3.199-8.666l2.04-5.537c2.307-6.241 4.658-12.448 7.217-18.59.805-1.865.805-1.865.69-3.887h2l.242 2.059c.971 3.768 2.85 6.733 4.883 10.003 5.675 9.351 10.778 18.993 15.872 28.667l.959 1.811q1.303 2.465 2.599 4.932c1.336 2.594 1.336 2.594 3.445 4.528l-.184-1.863c-2.722-28.568-2.908-56.69 1.184-85.137l.504-3.512C542.957 406.236 548.75 383.634 555 361c-2.078 0-4.11 2.826-5.5 4.125"/><path fill="#EF6856" d="M338 557h1l.18 2.534c2.96 40.212 10.213 77.445 23.176 115.654l.708 2.087q.96 2.82 1.924 5.638c.773 2.358 1.463 4.67 2.012 7.087l-2.75-2.437C347.396 673.27 331.11 665.497 309 663l-.54-1.626-1.59-4.77q-.825-2.47-1.642-4.942c-3.984-11.939-8.768-23.395-14.228-34.725l-1.724-3.598c-3.549-7.247-7.463-14.045-11.87-20.79L276 590l1-2 2.5 1.875c7.28 4.764 16.057 5.062 24.5 4.125 12.492-3.392 20.573-11.019 27-22 2.523-4.913 4.782-9.944 7-15"/><path fill="#213192" d="M523.25 553.938c10.405 5.962 15.567 15.665 18.867 26.847 1.047 4.382 1.19 8.6 1.133 13.09l-.027 2.405c-.257 13.017-4.125 26.539-13.371 36.255-5.823 4.606-13.027 8.587-20.633 7.98-7.782-1.808-14.445-6.138-19.219-12.515-8.533-13.705-11.669-30.422-8.156-46.254 3.062-11.706 8.647-21.275 19.176-27.723 6.841-3.535 15.298-3.213 22.23-.086"/><path fill="#036B43" d="M533.897 226.684c3.1.003 6.199-.02 9.298-.045 34.104-.108 65.123 7.726 90.258 31.763 2.963 3.023 5.315 6.011 7.547 9.598-3.259 3.388-6.558 6.263-10.375 9-5.04 3.722-9.833 7.643-14.563 11.75l-1.897 1.645c-3.523 3.082-6.868 6.278-10.165 9.605l2.474 1.123c69.264 31.45 69.264 31.45 100.088 45.877A696 696 0 0 0 722 354v6c-3.483-.598-6.468-1.502-9.691-2.941-.926-.41-1.852-.82-2.805-1.244l-3.067-1.377-3.279-1.46a5232 5232 0 0 1-7.22-3.223c-4.15-1.853-8.31-3.685-12.47-5.517-15.373-6.779-30.677-13.677-45.87-20.853a1601 1601 0 0 0-29.786-13.697l-1.875-.84C598.021 305.3 598.021 305.3 590 302c1.541-3.713 3.808-5.981 6.687-8.75 3.609-3.536 7.027-7.12 10.31-10.957 4.547-5.204 9.301-10.228 14.003-15.293-4.76-10.787-18.976-17.57-29.313-21.75C528.488 222.744 449.347 241.594 391 269l-2.297 1.073C364.694 281.393 341.895 295.648 321 312c0-4.108 1.448-4.913 4.312-7.812C368.88 261.073 434.558 236.988 494 229l2.1-.283c12.601-1.643 25.097-2.06 37.797-2.033"/><path fill="#EF6857" d="M690 560c1.905 2.857 3.286 5.65 4.75 8.75 4.419 8.774 8.626 13.93 17.707 18.148 10.626 3.304 22.15 1.466 32.543-1.898a48 48 0 0 1-4.617 7.766l-1.571 2.172-1.687 2.312-1.753 2.42c-3.288 4.522-6.626 9-10.015 13.445-15.438 20.286-28.2 42.518-40.357 64.885l-1.763 3.236a4440 4440 0 0 0-4.784 8.817l-2.808 5.178-1.739 3.226-1.552 2.874C671.078 703.846 670 706.366 669 709h-1c.55-14.778 2.616-29.354 4.563-44q.979-7.374 1.94-14.75l.455-3.368c.742-5.685 1.208-11.15 1.042-16.882l-3-1c-5.13 2.625-8.453 6.534-12.168 10.879-1.55 1.794-3.147 3.458-4.832 5.121 1.856-6.577 4.035-12.88 6.695-19.172l1.058-2.536q1.682-4.023 3.372-8.042 1.16-2.776 2.32-5.553 1.713-4.11 3.431-8.216a2306 2306 0 0 0 8.374-20.293A2207 2207 0 0 1 690 560"/><path fill="#213193" d="M691 541h2l.471 1.677c5.837 21.953 5.837 21.953 21.716 37.26 15.093 4.207 30.737-1.998 44.899-7.082C763 572 763 572 765 573l-1.871 2.422c-5.319 6.893-10.605 13.807-15.8 20.793q-1.437 1.928-2.876 3.855c-13.202 17.679-25.569 35.72-37.022 54.583a528 528 0 0 1-3.755 6.058c-7.005 11.248-12.893 23.103-18.931 34.888a2808 2808 0 0 1-7.87 15.213l-1.454 2.793c-4.966 9.498-10.108 18.9-15.283 28.286A185 185 0 0 0 657 748c-1.336-3.802-.76-6.964-.18-10.902l.617-4.323.34-2.321c2.31-15.846 4.23-31.724 5.973-47.641l.322-2.935A2611 2611 0 0 0 667 652l-1.41 1.673c-2.85 3.366-5.677 6.525-9.09 9.327-3.177 2.63-5.8 5.508-8.469 8.645-2.537 2.942-5.153 5.806-7.781 8.668l-1.43 1.562c-2.228 2.426-4.482 4.807-6.82 7.125a143 143 0 0 1 5.125-18.562l1.008-2.891c8.597-24.14 18.607-47.843 28.563-71.447 1.514-3.599 3.017-7.203 4.519-10.807 9.699-23.255 9.699-23.255 14.472-34.043l.954-2.164c1.289-2.88 2.603-5.453 4.359-8.086m-1 19-5 12-1.264 3.032c-3.268 7.85-6.515 15.71-9.75 23.575l-2.073 5.029a5517 5517 0 0 0-7.052 17.183q-1.173 2.868-2.356 5.734-1.662 4.038-3.306 8.084l-1.027 2.474c-.783 1.94-1.486 3.912-2.172 5.889l1 2 1.793-2.266 2.394-2.984 2.356-2.953c3.204-3.648 6.412-7.256 11.457-7.797 1 1 1 1 1.172 4.17-.077 5.746-.894 11.41-1.654 17.099q-.408 3.078-.806 6.158c-.66 5.096-1.332 10.19-2.004 15.286q-.852 6.475-1.69 12.952-.394 3.015-.798 6.028c-.799 6.156-1.438 12.1-1.22 18.307 2.507-2.507 3.732-5.346 5.25-8.5 15.791-32.106 33.895-62.841 55.29-91.531 2.868-3.866 5.696-7.76 8.523-11.657l1.699-2.324 1.586-2.187 1.406-1.933c1.263-1.893 2.273-3.813 3.246-5.868l-2.027.656c-11.004 3.19-22.99 4.739-33.66-.218-8.427-4.955-11.9-11.047-16.016-19.766-1.285-2.8-1.285-2.8-3.297-5.672"/><path fill="#F8FBF9" d="m655 199 2.03 1.365C664.882 205.7 672.053 211.517 679 218a689 689 0 0 0 4 3.438c12.79 11.141 12.79 11.141 15 15.562 4.024-1.48 7.57-3.403 11.254-5.59l1.766-1.046q1.838-1.09 3.673-2.186 2.798-1.668 5.602-3.324c6.136-3.56 6.136-3.56 11.963-7.587C734 216 734 216 736 216c.273 8.247-.469 16.265-1.48 24.437-.478 3.876-.933 7.754-1.387 11.633l-.29 2.468c-.942 8.144-1.719 16.302-2.484 24.465-2.349 25.05-5.337 50.021-8.359 74.997l-4-1c-1.385-4.843-.744-9.242-.18-14.16l.3-2.78q.323-2.992.656-5.982c.6-5.394 1.174-10.791 1.751-16.187l.368-3.418c1.48-13.84 2.79-27.696 4.102-41.552 2.01-21.225 2.01-21.225 3.085-31.808l.237-2.414c.565-5.468.565-5.468 1.681-7.699l-1.877 1.114-8.56 5.073-2.952 1.752a1254 1254 0 0 1-5.821 3.426 379 379 0 0 0-5.38 3.212l-2.383 1.411-2.074 1.255c-2.455.952-3.536.746-5.953-.243a87 87 0 0 1-5.312-5.625q-1.477-1.656-2.958-3.309l-1.432-1.612C656.848 201.602 610.802 179.49 569 174l-2.012-.299c-52.286-7.683-112.46 2.841-155.47 34.789A432 432 0 0 0 407 212l-2.715 2.082C391.07 224.407 378.808 236.174 368 249l-2.445 2.816c-6.764 7.825-13.015 15.97-19.155 24.29-2.077 2.81-4.176 5.601-6.275 8.394l-2.168 2.895a872 872 0 0 1-3.633 4.804c-3.184 4.188-6.117 8.471-8.93 12.918C324 307 324 307 321 309c1.523-4.12 3.502-7.89 5.688-11.687l1.083-1.884c3.124-5.364 6.59-10.402 10.229-15.429q1.397-1.984 2.79-3.973C349.443 263.67 358.314 251.581 368 240l1.274-1.552C382.435 222.425 396.791 207.666 414 196l3.148-2.156C439.643 179.272 465.6 170.096 492 166l2.764-.449C551.01 156.683 607.559 167.047 655 199"/><path fill="#FCFCFD" d="m434.25 916.563 2.256.022c11.651.346 20.2 5 28.244 13.227 7.048 9.985 7.776 20.094 5.777 32.004-2.384 8.21-8.44 15.5-15.527 20.184-5.723 3.023-10.455 3.49-16.875 3.438l-2.566.06c-9.534-.007-17.677-3.964-24.559-10.498-6.134-7.356-9.693-15.605-9.348-25.258 1.528-12.049 6.348-20.549 15.344-28.418 5.678-3.752 10.573-4.857 17.254-4.761"/><path fill="#212E8F" d="M525.297 283.809c2.61 1.826 4.618 3.777 6.703 6.191.494.565.987 1.13 1.496 1.71 9.317 11.386 9.791 24.147 8.504 38.29-1.9 11.054-8.528 21.04-17.367 27.918-5.6 3.711-12.12 3.955-18.633 3.082-8.706-3.174-15.406-11.82-19.21-19.98L486 339l-1.078-2.477c-1.368-5.229-1.29-10.327-1.297-15.71l-.074-3.252c-.041-11.254 2.99-19.823 10.293-28.393 8.385-8.431 20.732-11.613 31.453-5.36"/><path fill="#036944" d="m284 413 2 1c-2.409 10.657-4.984 21.22-8.125 31.688C269.272 474.504 262.197 503.806 255 533h-2c-1.707-1.844-1.707-1.844-3.812-4.5l-2.403-3.004-1.331-1.676c-2.75-3.441-5.545-6.845-8.329-10.258l-3.305-4.058-1.51-1.855a87 87 0 0 1-3.005-4.06c-1.314-1.888-1.314-1.888-4.305-2.589l-.793 1.68c-1.353 2.602-2.908 4.994-4.52 7.445-13.979 21.955-17.11 47.49-11.644 72.824q.472 2.027.957 4.051l.456 2.006c6.324 27.08 22.11 50.616 40.544 70.994l1.606 1.79c6.146 6.818 12.324 13.34 19.394 19.21q1.503 1.326 3 2.66c13.195 11.683 27.53 21.198 42.563 30.34l1.838 1.12c8.003 4.858 16.011 9.373 24.599 13.13l2.313 1.016L347 730c-5.379 1.793-10.792-1.224-16-3l-2.516-.844C320.171 723.102 312.611 718.47 305 714l-2.223-1.295C286.673 703.28 271.971 692.354 258 680l-1.644-1.453C225.273 650.893 197.956 612.815 195 570c-1.684-34.556 8.253-62.28 30-89 4.584 4.273 8.188 9.071 11.875 14.125l1.777 2.398c4.396 5.99 8.425 12.17 12.348 18.477l.807-2.924C262.885 472.958 262.885 472.958 268 456l.62-2.062q2.114-7.042 4.278-14.068.719-2.34 1.425-4.684c2.411-7.981 4.704-15.364 9.677-22.186"/><path fill="#91BB32" d="M847 503c2 1 2 1 3 3.906l2 7.188c.663 3.03.663 3.03 3 3.906 2.616 7.704 3.872 15.962 5 24l.344 2.426c5.315 46.283-10.165 93.903-38.936 130.156a599 599 0 0 1-10.658 12.856l-1.521 1.788c-3.158 3.664-6.43 7.023-10.217 10.051-1.7 2.895-.81 5.64-.012 8.723 1.083 3.436 2.31 6.81 3.563 10.188a834 834 0 0 1 1.94 5.292l.87 2.341C806 728 806 728 806 732h-98c1-5 1-5 2.082-6.785 3.013-1.908 6.145-1.654 9.602-1.647l2.366-.031c2.581-.03 5.162-.04 7.743-.049q2.685-.026 5.368-.054c4.71-.048 9.42-.077 14.13-.104 4.806-.03 9.612-.076 14.418-.121q14.145-.127 28.291-.209l-.814-1.606-1.077-2.137-1.064-2.106c-1.64-3.376-3.02-6.834-4.357-10.338-.277-.686-.554-1.37-.838-2.077-1.506-3.939-2.493-6.754-.85-10.736 1.969-2.29 1.969-2.29 4.5-4.625 5.33-5.125 9.924-10.578 14.5-16.375l2.656-3.281c14.48-17.973 27.342-37.703 34.666-59.72a217 217 0 0 1 2.229-6.183C852.169 574.786 854.555 537.22 847 507z"/><path fill="#223294" d="M345 524h1l.049 1.817c.914 40.276.914 40.276 5.951 80.183l.867 5.117c4.705 26.472 13.25 52.266 21.278 77.871l.737 2.355a476 476 0 0 0 4.544 13.706c.698 2.371.812 4.494.574 6.951-5.106-2.08-8.296-6.128-11.687-10.312-12.208-14.304-33.66-27.827-52.541-29.937-2.257-.164-4.51-.282-6.772-.376l-2.348-.117A915 915 0 0 0 301 671c-1.816-4.497-3.255-8.865-4.355-13.59-1.498-6.074-3.43-11.876-5.645-17.722l-1.176-3.112C283.036 618.992 274.436 602.293 265 586l-1.751-3.026c-6.8-11.955-6.8-11.955-14-23.668L248 557l1-2 1.338 1.402c9.228 9.605 18.303 18.562 29.662 25.598l2.34 1.488c6.685 3.623 14.273 3.438 21.66 2.512 4.432-1.472 8.341-3.314 11.64-6.668C317 578 317 578 319 578l.809-1.715c1.262-2.42 2.72-4.589 4.253-6.847 8.11-12.695 13.645-26.694 18.625-40.852C344 525 344 525 345 524m-7 33-1.504 3.402c-3.7 8.215-7.22 15.989-13.496 22.598l-1.57 1.691c-6.55 6.313-15.026 9.575-24.055 9.809-7.759-.326-14.94-1.996-21.375-6.5 1.287 3.534 2.92 6.713 4.817 9.958C292.895 618.62 301.508 640.34 309 663l3.227.48c19.035 2.994 34.505 9.305 49.023 22.13 2.698 2.447 2.698 2.447 5.75 4.39-1.673-5.838-3.519-11.607-5.488-17.352C348.462 634.535 342.006 597.072 339 557z"/><path fill="#FCFBFC" d="M572 42c4.093.456 8.168.962 12.25 1.5l3.512.375c8.214 1.14 8.214 1.14 10.708 3.54 1.113 2.145 1.8 4.279 2.53 6.585a533 533 0 0 0 2.198 5.215c1.39 3.246 2.715 6.518 4.052 9.785l1.68 4.082Q610.97 78.039 613 83c1.758-4.205 2.787-8.345 3.625-12.812l.406-2.1q.49-2.543.969-5.088l-6-1c.508-4.318 1.197-8.033 3-12 6.053-.266 11.53.74 17.438 2l2.794.578Q638.618 53.28 642 54q-.211 3.219-.437 6.438l-.247 3.62C641 67 641 67 640 68c-2 .04-4 .043-6 0 .03 1.147.062 2.293.094 3.474-.004 4.455-.69 8.585-1.59 12.936l-.464 2.337q-.73 3.66-1.477 7.316-.737 3.661-1.468 7.326-.453 2.268-.914 4.534A199 199 0 0 0 626 119a739 739 0 0 1-6.062-.375c-1.126-.07-2.251-.14-3.41-.21-3.931-.462-6.875-.827-10.528-2.415-1.91-2.766-2.895-5.776-3.965-8.945l-.979-2.682a647 647 0 0 1-2.994-8.498q-1.031-2.879-2.072-5.754c-1.692-4.697-3.35-9.405-4.99-14.121a6952 6952 0 0 0-1.937 8.625l-.553 2.45c-.96 4.294-1.841 8.573-2.51 12.925h5c1.158 3.475.773 5.137.063 8.688l-.59 3.011L590 114c-6.932-.443-13.77-1.347-20.625-2.437l-2.443-.37c-1.99-.328-3.964-.753-5.932-1.193-1.455-2.91-.635-4.958-.062-8.125.291-1.644.291-1.644.59-3.32L562 96h7l.297-2.508c1.02-8.148 2.304-16.223 3.765-24.305l.529-2.947.507-2.76.453-2.471C575 59 575 59 576 57l-7-1z"/><path fill="#232D8D" d="M298.898 501.094c2.55 1.474 4.808 3.062 7.102 4.906l1.922 1.465c8.11 7.051 13.408 19.536 14.414 30.043.132 12.208-1.638 23.39-10.336 32.492-5.164 4.672-9.26 6.595-16.21 6.441-8.31-1.315-15.679-6.943-20.79-13.441-8.948-13.011-12.423-25.263-11-41 1.795-7.718 5.813-14.578 12.125-19.375 6.746-3.813 15.51-4.272 22.773-1.531"/><path fill="#FCFCFD" d="M728.438 873.063c5.928 4.482 9.81 9.657 11.562 16.937.792 6.223-1.244 10.573-4 16 6.277 4.282 12.694 8.31 19.18 12.266A189 189 0 0 1 761 922a860 860 0 0 1-9.187 6.063c-.865.58-1.73 1.16-2.62 1.76l-2.548 1.65-2.333 1.539c-2.897 1.238-4.35.943-7.312-.012-2.027-1.523-2.027-1.523-3.937-3.375-4.667-4.28-8.833-6.473-15.063-7.625l.734 1.62q1.638 3.626 3.266 7.255l1.156 2.55 1.094 2.442 1.016 2.254C726 940 726 940 726 942c-2.765 1.51-5.538 3.006-8.312 4.5l-2.381 1.3-2.295 1.231-2.11 1.143C709 951 709 951 706 951c-5.467-10.644-10.575-21.435-15.544-32.32-2.298-5.029-4.609-10.04-7.073-14.989l-1.168-2.369a250 250 0 0 0-2.156-4.248c-2.214-4.493-2.214-4.493-1.532-7.046 2.084-2.87 4.802-4.127 7.907-5.665l1.92-.984c2.022-1.033 4.053-2.05 6.083-3.067q2.045-1.041 4.088-2.087c9.884-5.032 18.656-8.642 29.913-5.163"/><path fill="#213196" d="M755.113 503.45c6.276 5.158 10.319 11.032 11.356 19.277.075 9.43-1.187 16.687-5.469 25.273l-1.352 2.71C753.883 561.18 745.505 569.269 734 573c-5.819.86-11.644 1.117-17-1.625-6.374-5.046-9.98-10.478-12-18.375-1.518-13.749 2.61-25.962 11.18-36.742 9.751-11.065 24.3-23.015 38.933-12.809"/><path fill="#F7FAF9" d="M174 406c22.371.6 44.677 1.949 67.008 3.386q6.96.446 13.922.885 13.535.86 27.07 1.729l1 3-2 3c-11.563 1.506-24.04-.376-35.618-1.143a2038 2038 0 0 0-32.157-1.848l-5.278-.268q-3.72-.19-7.443-.374l-2.203-.113c-5.105-.246-10.19-.284-15.301-.254l1.68 3.07 2.195 4.055 1.105 2.016c2.09 3.874 3.764 7.616 5.02 11.859l-2.812 2.563C180.025 447.807 172.862 459.92 167 473l-.855 1.842c-4.932 10.707-7.221 21.591-9.145 33.158l-.586 3.313C152.947 542.187 159.35 574.208 173 602l.995 2.06C192.731 642.465 225.228 674.711 262 696l2.613 1.645c19.195 11.86 41.07 20.193 62.509 26.997l2.616.842 2.345.742C334 727 334 727 336 729c-6.923-.476-13.292-1.648-19.937-3.625l-2.76-.812C283.027 715.483 254.813 701.697 230 682l-2.61-2.027c-5.784-4.595-11.234-9.504-16.64-14.535l-2.005-1.858c-4.554-4.287-8.696-8.817-12.745-13.58l-2.484-2.844C161.189 609.256 145.313 562.784 148 513c2.125-25.95 11.507-50.811 28.93-70.324l1.43-1.622a249 249 0 0 1 4-4.335c1.974-2.604 1.974-2.604 1.163-5.528L182 428l-.932-1.987a420 420 0 0 0-4.322-8.824l-1.066-2.193-.977-1.963c-.84-2.43-.75-4.477-.703-7.033"/><path fill="#FCFCFD" d="M318.75 85.063c5.461 3.255 10.595 7.625 12.809 13.792 1.348 6.551 1.836 13.649-1.622 19.582-4.202 5.628-9.418 9.896-15.937 12.563h-3l2 7 1.68-.875 2.195-1.125 2.18-1.125C321 134 321 134 323 134q1.256 2.934 2.5 5.875l1.406 3.305C328 146 328 146 328 148a6327 6327 0 0 1-13.135 6.836q-2.235 1.162-4.47 2.328a2477 2477 0 0 1-6.418 3.336l-2.024 1.06C297.228 164 297.228 164 295 164c-.87-1.408-1.72-2.826-2.562-4.25l-1.442-2.39c-.996-2.36-.996-2.36-.898-4.47 1.161-2.433 2.663-3.446 4.902-4.89l-2.44-4.878-2.136-4.279c-1.9-3.805-3.809-7.606-5.736-11.398l-1.112-2.195q-1.063-2.1-2.137-4.195C279 116.225 279 116.225 279 114l-2.312 1C274 116 274 116 271 116c-1.64-2.082-1.64-2.082-3.25-4.812l-1.64-2.708C265 106 265 106 266 103a95 95 0 0 1 7.14-3.941l2.18-1.117c2.305-1.177 4.618-2.34 6.93-3.504q2.315-1.181 4.629-2.366l4.45-2.263c.692-.353 1.385-.705 2.099-1.067 8.755-4.405 15.623-6.428 25.322-3.68"/><path fill="#FDFCFD" d="M469 375c3.243 1.115 5.961 2.57 8.813 4.438 3.925 2.494 7.734 4.233 12.187 5.562l2.094.625c8.476 2.09 17.242 1.545 25.906 1.375l-.402 3.41-.535 4.652-.264 2.221c-1.622 14.237-1.934 28.347-1.861 42.654q.008 2.644.013 5.288.017 6.387.049 12.775l-6.041-.09c-3.456.16-4.98 1.756-7.365 4.07-5.586 7.079-7.945 16.54-10.594 25.02h-2l-.5-2.894a6258 6258 0 0 0-11.187-62.856l-.563-3.078c-2.078-11.349-4.203-22.683-6.547-33.981-.638-3.114-1.203-6.003-1.203-9.191"/><path fill="#FCFBFC" d="M393 55a92 92 0 0 1 2.688 8.375l.681 2.367C397.277 68.966 398 71.63 398 75c-1.58.533-3.164 1.051-4.75 1.563l-2.672.878c-2.656.576-4.048.451-6.578-.441l-1-5-2.336.875L377.625 74l-3.023 1.125C372 76 372 76 370 76l2 10 17-4c1.524 3.81 2.279 5.947 2.625 9.813l.227 2.394L392 96c-4.928 1.769-9.886 2.932-15 4l1 2.688c1 3.312 1 3.312 1 8.312l17-5 1-6c3-1 3-1 12-1l4 19a926 926 0 0 1-31.676 10.204q-2 .605-3.999 1.216c-1.902.58-3.807 1.152-5.712 1.725l-3.35 1.01c-3.41.883-6.77 1.41-10.263 1.845a479 479 0 0 1-1.5-4.25l-.844-2.39C355 125 355 125 355 121l6-1-1.01-3.273a10480 10480 0 0 1-3.69-11.998q-.798-2.6-1.6-5.197-1.15-3.73-2.294-7.462l-.729-2.355C350 84.228 350 84.228 350 82l-6 2a496 496 0 0 1-2.562-5.312l-1.442-2.989C339 73 339 73 340 70c2.227-1.056 2.227-1.056 5.195-2.016l3.328-1.094 3.602-1.14 3.656-1.183A2050 2050 0 0 1 367 61l3.483-1.116c3.17-1.015 6.342-2.015 9.517-3.009l2.926-.93 2.699-.828 2.352-.73C390 54 390 54 393 55"/><path fill="#FCFCFD" d="M314 872c13.765 4.078 31.858 11.906 39 25 2.553 7.658 1.767 15.353-1.687 22.563-3.07 5.844-7.111 9.41-13.301 11.828-7.078 2.144-12.383 2.098-19.004-1.286L317 929c-2.732-1.5-3.802-2-7-2l-6 14c-3.07-.767-5.151-1.456-7.89-2.848l-2.15-1.084-2.21-1.13-2.258-1.143Q286.745 933.402 284 932c2.092-5.03 4.401-9.875 6.914-14.707l1.126-2.18q1.182-2.289 2.368-4.576 3.051-5.894 6.092-11.795l1.195-2.316A1562 1562 0 0 0 314 872M668 894c2.754 2.754 3.474 5.998 4.625 9.625l.695 2.14q.848 2.617 1.68 5.235-4.935 1.757-9.875 3.5l-2.84 1.012-2.715.957-2.507.888C655 918 655 918 653 918l2 9 3.832-1.531 4.98-1.969 2.526-1.012 2.432-.957 2.237-.888C673 920 673 920 676 920q1.255 3.435 2.5 6.875l.723 1.973C681 933.773 681 933.773 681 936a2318 2318 0 0 1-8.312 3l-2.381.867-2.295.82-2.11.762C664 942 664 942 661 942l2 8 2.171-.734q4.851-1.637 9.704-3.266l3.418-1.156 3.262-1.094 3.015-1.016C687 942 687 942 689 942q.974 2.591 1.938 5.188l1.09 2.917c.884 2.632 1.498 5.164 1.972 7.895-7.879 2.99-15.833 5.72-23.82 8.408q-2.508.847-5.012 1.705-3.637 1.244-7.281 2.465l-2.264.783c-5.28 1.753-5.28 1.753-8.623.639-.897-1.759-.897-1.759-1.638-4.082l-.86-2.634-.9-2.882-.96-2.974a1838 1838 0 0 1-3.017-9.49q-.999-3.115-2-6.229-2.398-7.477-4.759-14.966-1.223-3.87-2.457-7.739l-1.386-4.375-1.197-3.775C627 910 627 910 627 908z"/><path fill="#FCFBFC" d="M769 106c3.301 1.252 6.308 2.656 9.336 4.469l2.456 1.467 2.583 1.564 2.663 1.607c5.614 3.41 11.17 6.895 16.65 10.518l1.905 1.252c4.283 2.875 4.283 2.875 5.407 5.123-2.475 5.787-6.259 10.976-10 16q-2.408-1.184-4.812-2.375l-2.708-1.336C790 143 790 143 787 141l1-7-11-7c-2.186 4.567-2.186 4.567-2 8 2.256 1.906 2.256 1.906 5.125 3.75 5.968 4.178 10.949 8.453 13.875 15.25.692 6.693-.549 12.184-4 18-5.18 5.899-10.124 9.341-18.008 10.406-10.863.327-18.51-3.315-26.867-10.094-4.54-4.299-8.015-9.405-10.125-15.312.016-2.129.016-2.129 1-4 2.398-1.668 2.398-1.668 5.375-3.187l2.96-1.543C747 147 747 147 750 146c.23.736.461 1.472.7 2.23 2.253 6.743 4.343 10.868 10.175 15.145 3.285.966 5.833.403 9.125-.375 2.064-.98 2.064-.98 3-3 .919-3.327.919-3.327 0-7-4.557-6.023-11.721-9.17-18.34-12.422C752 139 752 139 751 136c2.95-9.493 10.302-18.157 15.864-26.28 1.188-1.724 1.188-1.724 2.136-3.72"/><path fill="#FCFCFC" d="M707 76c6.563 1.875 12.476 4.633 18.535 7.727 5.276 2.692 10.6 5.263 15.965 7.773l2.268 1.061Q746.383 93.783 749 95c-1.947 6.507-4.511 12.167-8 18-5.76-.606-10.72-2.757-16-5l3-6c-3.014-2.57-5.36-3.522-9.25-4.187l-2.703-.481L714 97l-1 6 2.438.625c8.965 3.46 16.195 9.52 21 17.875 1.592 7.077.62 11.8-2.825 18.098-3.4 5.062-7.594 9.119-13.55 10.84q-2.022.35-4.063.562l-2.152.246c-8.778.51-16.316-3.202-23.035-8.621-5.456-4.89-9.881-10.418-11.813-17.625.066-2.094.066-2.094 1-4 2.398-1.52 2.398-1.52 5.375-2.812l2.96-1.333C691 116 691 116 694 117c.992 2.145.992 2.145 1.875 4.813 1.927 5.188 4.14 7.695 9.125 10.187 5.423.393 5.423.393 10.5-1.125 1.721-1.867 1.721-1.867 2.125-4.75-.694-3.47-1.69-4.749-4.512-6.836-3.612-2.203-7.393-4.041-11.21-5.86L699 112l-2.871-1.055c-2.544-2.324-2.586-3.058-2.813-6.41.336-6.571 3.337-11.538 6.621-17.097l1.71-3.018c4.064-7.13 4.064-7.13 5.353-8.42"/><path fill="#FDFCFC" d="M258 117a803 803 0 0 1 2.438 5.625l1.37 3.164c1.15 3.098 1.765 5.943 2.192 9.211q-2.119 1.478-4.25 2.938l-2.39 1.652c-2.186 1.306-3.875 1.96-6.36 2.41-1.892-2.386-3.024-4.072-4-7-3.636.248-5.555.625-8.375 3-2.252 4.157-2.37 7.37-1.625 12 1.907 6.192 5.156 12.676 10.867 16.129 4.87 1.99 9.934 1.79 14.762-.227 5.582-3.195 10.097-7.118 14.371-11.902 3.593 3.454 6.792 7.194 10 11-4.459 10.033-14.407 16.656-24.125 21.063-9.055 3.407-16.99 2.512-25.875-1.063-10.168-5.49-16.402-14.205-20-25-.768-11.916-.509-20.72 7.313-30.25 9.242-9.827 20.18-13.707 33.687-12.75"/><path fill="#FBFBFD" d="M592 917c1.46 5.993 2.415 11.858 3 18-3.998.956-7.708 1.104-11.812 1.063l-3.52-.028L577 936l.335 1.95c6.183 36.078 6.183 36.078 5.665 48.05-14.597 2.296-14.597 2.296-22 2-1.1-2.198-1.298-3.782-1.573-6.219l-.303-2.64-.315-2.856-.332-2.93q-.347-3.07-.689-6.14-.525-4.705-1.06-9.408l-.67-5.96-.321-2.85-.294-2.65-.26-2.33C555 942 555 942 555 939l-18 1-1-18 7.313-.586q3.594-.292 7.189-.586 2.455-.2 4.91-.395c9.827-.785 19.595-1.734 29.365-3.053C588 917 588 917 592 917"/><path fill="#FCFCFD" d="m475 921 6.719.465c9.92.644 19.845.872 29.781 1.097l5.418.131q6.54.158 13.082.307v18h-16l.063 7.625c.051 13.798-.551 27.589-1.063 41.375l-23-1q.18-8.539.372-17.078.065-2.9.125-5.801.089-4.185.187-8.371l.05-2.593A130 130 0 0 1 492 940l-1.86.03c-5.237.08-9.83-.366-15.14-1.03z"/><path fill="#FCFCFC" d="M367 896c4.654.643 8.878 1.83 13.313 3.375l3.738 1.273L387 902c1.3 3.9.397 5.215-1.098 9.004l-1.422 3.661-.765 1.931c-1.296 3.278-2.564 6.568-3.832 9.857l-.76 1.967c-2.99 7.768-5.607 15.648-8.123 23.58l2.273.516c6.858 1.623 13.267 3.668 19.727 6.484q-.682 2.845-1.375 5.688l-.773 3.199c-.772 2.82-1.743 5.412-2.852 8.113-9.794-2.408-19.205-5.794-28.687-9.187l-4.764-1.694Q348.773 963.066 343 961c2.246-8.06 5.12-15.821 8.125-23.625l2.195-5.741 1.486-3.886c2.865-7.487 5.666-14.998 8.464-22.51l1.05-2.812.915-2.456C366 898 366 898 367 896"/><path fill="#FDFCFC" d="m279 592 2.414 1.277 3.211 1.66 3.164 1.653c8.209 3.605 17.822 3.398 26.211.41 2.739-1.23 5.35-2.58 8-4l.356 1.843c3.793 19.329 9.424 36.844 17.972 54.602C342 653 342 653 343 656l-1.625-.516a397 397 0 0 0-16.187-4.609l-3.77-1.008c-5.715-1.304-11.582-1.518-17.418-1.867l-.743-1.946c-4.603-11.968-9.375-23.775-15.132-35.241l-1.368-2.73c-1.862-3.64-3.733-7.155-6.077-10.509C279 595 279 595 279 592"/><path fill="#FCFBFB" d="M688 565h1l.445 1.871c2.723 10.28 7.438 17.5 16.555 23.129 1.324.685 2.655 1.357 4 2-1.38 3.666-3.035 6.995-4.977 10.395l-1.77 3.119-1.878 3.298c-8.364 14.852-15.72 29.543-22.052 45.382l-1.221 3.02-1.084 2.723C676 662 676 662 674 663q.213-4.281.438-8.562l.119-2.424c.25-4.726.754-9.328 1.443-14.014a77 77 0 0 0 .063-4.437L676 630l-3-1c-5.13 2.625-8.453 6.534-12.168 10.879-1.55 1.794-3.147 3.458-4.832 5.121 1.856-6.577 4.035-12.88 6.695-19.172l1.058-2.537q1.681-4.023 3.372-8.041l2.315-5.542q1.711-4.103 3.427-8.204c3.22-7.699 6.39-15.417 9.532-23.148A674 674 0 0 1 688 565"/><path fill="#FDFBFC" d="M515 560c5.233 4.252 7.357 10.672 9 17l.688 2.438c1.271 10.428-.572 19.653-5.5 29-4.734 5.545-9.597 10.214-17.063 10.937-4.475-.183-6.875-1.125-10.125-4.375-5.486-10.359-5.67-22.81-2.66-33.959 2.576-8.265 7.132-15.668 14.664-20.264 3.717-1.447 7.113-1.755 10.996-.777"/><path fill="#FCFBFD" d="m621 911 .747 3.506c6.435 30.29 6.435 30.29 13.253 60.494-9.56 3.264-9.56 3.264-13.812 4.188l-2.145.48C617 980 617 980 613 980c-5.658-21.434-9.99-43.205-14-65 14.364-4.064 14.364-4.064 22-4"/><path fill="#FDFCFD" d="M512 289c1.73 1.977 1.73 1.977 3.188 4.625l1.48 2.602c4.565 9.505 5.072 20.748 1.707 30.773-2.532 5.94-5.814 10.951-10.875 15-3.701 1.48-6.778 1.626-10.543.258-3.325-2.137-3.984-5.02-5.187-8.668-2.57-11.991-2.035-24.83 4.23-35.59 3.998-5.202 8.96-10.19 16-9M288 509c7.554 5.141 11.26 14.267 13 23 .774 8.346-.106 17.731-5.375 24.563-3.526 3.273-5.732 4.314-10.5 4.625-5.88-2.235-8.704-7.378-11.457-12.82-2.425-6.154-3.061-12.071-3.168-18.618l-.056-2.256c.063-5.553 1.48-9.852 4.556-14.494 4.48-4.16 6.978-5.818 13-4"/><path fill="#E45750" d="M583 634c1.238 3.713.565 4.695-.875 8.25-1.246 3.083-2.12 5.713-2.562 9.02-.698 4.625-2.144 8.765-3.688 13.168-12.008 35.253-20.502 71.483-25.125 108.437l-.252 2.014c-.969 7.835-1.726 15.616-2.048 23.506-.501 2.901-1.165 3.824-3.45 5.605-8.97-52.082 7.208-120.121 34-165 1.295-1.696 2.615-3.376 4-5"/><path fill="#FCFCFC" d="m742.813 507.875 2.957.055 2.23.07c3.563 5.914 2.798 13.501 1.313 20.016-3.197 9.537-9.217 18.2-18.254 23.02-4.792 2.015-8.893 2.557-14.059 1.964-3-1.437-3-1.437-5-4-1.628-10.255 3.38-20.692 9.262-28.93 6.023-7.173 11.853-12.429 21.55-12.195"/><path fill="#F06B58" d="M512 288c6.751 0 10.102 1.955 14.95 6.61 8.585 10.008 8.869 21.83 8.05 34.39-1.311 8.59-5.612 16.291-12.187 22-4.416 3.14-8.511 3.663-13.813 3-6.435-1.964-9.538-5.374-13-11l1-2 2 1c3.96.553 5.892.054 9.5-1.75 5.555-4.284 9.341-12.386 10.5-19.25.678-10.07.928-19.743-5.637-28.078C512 291 512 291 512 288"/><path fill="#EF6855" d="M515 560c7.254 1.707 11.047 4.232 15.125 10.625 6.693 11.869 7.62 24.491 4.75 37.75-2.758 9.454-7.754 16.963-15.875 22.625-5.49 1.83-10.97 1.937-16.25-.5-4.458-4.053-8.599-8.433-9.75-14.5l2 1c4.606 1.535 8.631 2.018 13.117.09 9.477-5.561 12.526-12.934 15.477-23.145 2.386-11.426-1.22-22.636-7.387-32.18z"/><path fill="#FDFBFC" d="M679.438 63.188C683.899 65.68 686.7 68.4 689 73c.558 5.963.502 10.929-3 16-5.535 4.995-9.187 5.409-16.527 5.344-6.614-.655-11.39-3.31-16.098-7.906-2.067-5.17-2.106-9.95-1.375-15.438 1.962-4.394 4.546-7.1 8.89-9.3 6.433-2.133 12.49-1.336 18.548 1.487"/><path fill="#F06956" d="M285 507c6.923-.415 11.35.058 16.934 4.559 7.563 6.877 12.689 16.147 13.304 26.418.455 18.954.455 18.954-5.992 25.918-4.15 3.7-7.192 5.569-12.945 5.527-4.416-.81-7.937-3.553-11.301-6.422l-2-3 3.688-.187c3.32-.429 4.33-.827 7.125-2.938 5.65-7.427 7.107-15.764 6.187-24.875-2.338-9.63-5.842-16.583-13.61-22.8-.458-.397-.917-.792-1.39-1.2zM748 508c4.944 2.28 8.282 4.565 10.563 9.625 3.186 9.575.388 19.403-3.563 28.375-4.687 8.412-11.406 16.646-20.687 20-5.139 1.365-8.64 1.936-13.438-.75L718 563l-2.25-1.625c-2.73-3.704-3.1-7.889-3.75-12.375l2 1.5c4.692 2.346 8.561 2.142 13.492.844 8.371-2.952 13.266-7.569 17.32-15.407 2.8-5.895 4.46-10.982 4.375-17.562l-.019-3.352c-.14-2.519-.436-4.623-1.168-7.023"/><path fill="#223794" d="M440.879 935.21c4.198 1.563 6.158 4.865 8.121 8.79.6 7.607.83 14.45-4.29 20.531-2.677 2.578-4.601 3.454-8.272 3.969-3.682-.536-5.553-1.176-8.438-3.5-3.561-5.088-4.76-9.827-4-16 2.518-8.648 7.022-15.484 16.879-13.79"/><path fill="#EF6050" d="M245.438 134.063c2.562.937 2.562.937 4.375 3.812C251 141 251 141 251 144a88 88 0 0 1-6 5.188l-1.734 1.404A590 590 0 0 1 239 154c-2-1-2-1-3-4-.507-3.806-.861-7.448 1.047-10.887 2.53-3.073 4.314-5.155 8.39-5.05"/><path fill="#223592" d="M325 896c6.35 1.27 6.35 1.27 9 5 .633 4.977.054 8.007-3 12-2.79 1.395-4.903 1.182-8 1l-5-2z"/><path fill="#EE604E" d="M309 102c2.076 1.564 2.884 2.64 3.688 5.121.32 2.375.532 4.49.312 6.879-2.73 3.12-5.054 4.121-9 5a1661 1661 0 0 1-3.5-6.375l-1.012-1.828C297 106.227 297 106.227 297 104c4.116-1.996 7.443-2.422 12-2"/><path fill="#1F328F" d="M716 891c2.627 1.63 2.97 2.902 3.875 5.875.155 3.866-.349 5.204-2.875 8.125-2.296 1.273-4.512 2.108-7 3a1505 1505 0 0 1-3-5.875l-1.687-3.305C704 896 704 896 704 894c4.174-2.385 7.166-3.645 12-3"/><path fill="#EE5B4B" d="M714 97c6.073-.506 9.772.958 15 4l-3 6 13 6-4 3 1 4-2-2.062a457 457 0 0 0-3-2.938l-1.762-1.715C724.29 108.7 719.151 105.735 713 103z"/><path fill="#EE5C4D" d="M777 127c4.428 1.476 8.634 3.73 12 7v3c-3.375 1.84-4.783 2.045-8.625 1.25C777 137 777 137 774 135c.628-2.929 1.586-5.361 3-8"/><path fill="#F05E49" d="m383 72 2 7q-2.654 1.008-5.312 2l-2.989 1.125C374 83 374 83 371 83l-1-7a742 742 0 0 1 4.813-2l2.707-1.125C380 72 380 72 383 72"/><path fill="#182789" d="m311 107 2 1c.313 2.75.313 2.75 0 6-2.73 2.805-5.105 4.423-9 5l-3-6a546 546 0 0 1 4.875-3.062l2.742-1.723z"/><path fill="#1B2A8E" d="m607 68 9 3c.226 5.419-.533 9.775-2 15-1.966-2.95-3.257-5.737-4.625-9l-1.352-3.187C607 71 607 71 607 68"/><path fill="#CD675E" d="M546 821h1v28c-2.972-2.972-4.387-5.34-6.25-9.062l-1.64-3.223L538 834l1-2 5 9z"/><path fill="#EC5040" d="M668 74c2.563-.25 2.563-.25 5 0 1 1 1 1 1.188 3.938C674 81 674 81 672 83c-2.625-.375-2.625-.375-5-1-.625-2.312-.625-2.312-1-5z"/><path fill="#ED4C3C" d="m540 663 2 1-.93 1.703c-1.1 2.36-1.671 4.502-2.195 7.047l-.508 2.422L538 677h-2l-2 9h-1c.48-8.17 3.352-15.703 7-23"/><path fill="#282A8A" d="M663 693h1l1 6h2l-1 8-2-2-2 4q-.04-2.594-.062-5.187l-.036-2.918c.093-2.75.477-5.22 1.098-7.895"/><path fill="#F16648" d="m584 632 2 1c-1.662 5.857-3.47 11.459-6 17-1-2-1-2-.258-4.426l1.133-2.886c1.39-3.562 2.48-6.916 3.125-10.688"/><path fill="#DD6059" d="m671 692 1 2 2 1a181 181 0 0 1-4 4h-1v-6z"/><path fill="#ED6E5F" d="m727 48 1 2-2-1zM687 32l1 2-2-1zM745 58l2 1ZM742 56l2 1ZM456 8l2 1Z"/></svg>